<mxfile host="Electron" agent="Mozilla/5.0 (X11; Linux x86_64) AppleWebKit/537.36 (KHTML, like Gecko) draw.io/24.7.17 Chrome/128.0.6613.36 Electron/32.0.1 Safari/537.36" version="24.7.17">
  <diagram name="Страница — 1" id="31lRXJjjCan0u_8SElbn">
    <mxGraphModel dx="1311" dy="913" grid="1" gridSize="10" guides="1" tooltips="1" connect="1" arrows="1" fold="1" page="1" pageScale="1" pageWidth="827" pageHeight="1169" math="0" shadow="0">
      <root>
        <mxCell id="0" />
        <mxCell id="1" parent="0" />
        <mxCell id="zyq9DOdAs0wRqW1_xpPK-40" value="" style="group" parent="1" vertex="1" connectable="0">
          <mxGeometry x="40" y="40" width="680" height="440" as="geometry" />
        </mxCell>
        <mxCell id="zyq9DOdAs0wRqW1_xpPK-25" value="" style="rounded=0;whiteSpace=wrap;html=1;direction=south;fillColor=default;" parent="zyq9DOdAs0wRqW1_xpPK-40" vertex="1">
          <mxGeometry width="680" height="440" as="geometry" />
        </mxCell>
        <mxCell id="zyq9DOdAs0wRqW1_xpPK-26" style="rounded=0;orthogonalLoop=1;jettySize=auto;html=1;endSize=17;endArrow=none;endFill=0;strokeWidth=2;" parent="zyq9DOdAs0wRqW1_xpPK-40" source="zyq9DOdAs0wRqW1_xpPK-27" target="zyq9DOdAs0wRqW1_xpPK-32" edge="1">
          <mxGeometry relative="1" as="geometry" />
        </mxCell>
        <mxCell id="zyq9DOdAs0wRqW1_xpPK-27" value="1" style="ellipse;whiteSpace=wrap;html=1;aspect=fixed;fontSize=30;fontStyle=1;strokeWidth=3;" parent="zyq9DOdAs0wRqW1_xpPK-40" vertex="1">
          <mxGeometry x="40" y="300" width="80" height="80" as="geometry" />
        </mxCell>
        <mxCell id="zyq9DOdAs0wRqW1_xpPK-28" style="rounded=0;orthogonalLoop=1;jettySize=auto;html=1;endSize=17;endArrow=none;endFill=0;strokeWidth=2;" parent="zyq9DOdAs0wRqW1_xpPK-40" source="zyq9DOdAs0wRqW1_xpPK-29" target="zyq9DOdAs0wRqW1_xpPK-32" edge="1">
          <mxGeometry relative="1" as="geometry" />
        </mxCell>
        <mxCell id="zyq9DOdAs0wRqW1_xpPK-29" value="3" style="ellipse;whiteSpace=wrap;html=1;aspect=fixed;fontSize=30;fontStyle=1;strokeWidth=3;" parent="zyq9DOdAs0wRqW1_xpPK-40" vertex="1">
          <mxGeometry x="200" y="300" width="80" height="80" as="geometry" />
        </mxCell>
        <mxCell id="zyq9DOdAs0wRqW1_xpPK-30" value="7" style="ellipse;whiteSpace=wrap;html=1;aspect=fixed;fontSize=30;fontStyle=1;strokeWidth=3;" parent="zyq9DOdAs0wRqW1_xpPK-40" vertex="1">
          <mxGeometry x="520" y="300" width="80" height="80" as="geometry" />
        </mxCell>
        <mxCell id="zyq9DOdAs0wRqW1_xpPK-31" style="rounded=0;orthogonalLoop=1;jettySize=auto;html=1;endArrow=none;endFill=0;strokeWidth=2;" parent="zyq9DOdAs0wRqW1_xpPK-40" source="zyq9DOdAs0wRqW1_xpPK-32" target="zyq9DOdAs0wRqW1_xpPK-30" edge="1">
          <mxGeometry relative="1" as="geometry" />
        </mxCell>
        <mxCell id="zyq9DOdAs0wRqW1_xpPK-32" value="2" style="ellipse;whiteSpace=wrap;html=1;aspect=fixed;fontSize=30;fontStyle=1;strokeWidth=3;" parent="zyq9DOdAs0wRqW1_xpPK-40" vertex="1">
          <mxGeometry x="120" y="100" width="80" height="80" as="geometry" />
        </mxCell>
        <mxCell id="zyq9DOdAs0wRqW1_xpPK-33" value="4" style="ellipse;whiteSpace=wrap;html=1;aspect=fixed;fontSize=30;fontStyle=1;strokeWidth=3;" parent="zyq9DOdAs0wRqW1_xpPK-40" vertex="1">
          <mxGeometry x="280" y="100" width="80" height="80" as="geometry" />
        </mxCell>
        <mxCell id="zyq9DOdAs0wRqW1_xpPK-34" style="rounded=0;orthogonalLoop=1;jettySize=auto;html=1;endSize=17;endArrow=none;endFill=0;strokeWidth=2;" parent="zyq9DOdAs0wRqW1_xpPK-40" source="zyq9DOdAs0wRqW1_xpPK-35" target="zyq9DOdAs0wRqW1_xpPK-36" edge="1">
          <mxGeometry relative="1" as="geometry" />
        </mxCell>
        <mxCell id="zyq9DOdAs0wRqW1_xpPK-35" value="5" style="ellipse;whiteSpace=wrap;html=1;aspect=fixed;fontSize=30;fontStyle=1;strokeWidth=3;" parent="zyq9DOdAs0wRqW1_xpPK-40" vertex="1">
          <mxGeometry x="360" y="300" width="80" height="80" as="geometry" />
        </mxCell>
        <mxCell id="zyq9DOdAs0wRqW1_xpPK-36" value="6" style="ellipse;whiteSpace=wrap;html=1;aspect=fixed;fontSize=30;fontStyle=1;strokeWidth=3;" parent="zyq9DOdAs0wRqW1_xpPK-40" vertex="1">
          <mxGeometry x="440" y="100" width="80" height="80" as="geometry" />
        </mxCell>
        <mxCell id="zyq9DOdAs0wRqW1_xpPK-37" style="rounded=0;orthogonalLoop=1;jettySize=auto;html=1;endSize=17;endArrow=none;endFill=0;strokeWidth=2;exitX=0.291;exitY=0.077;exitDx=0;exitDy=0;exitPerimeter=0;" parent="zyq9DOdAs0wRqW1_xpPK-40" source="zyq9DOdAs0wRqW1_xpPK-35" target="zyq9DOdAs0wRqW1_xpPK-33" edge="1">
          <mxGeometry relative="1" as="geometry" />
        </mxCell>
        <mxCell id="zyq9DOdAs0wRqW1_xpPK-38" value="&lt;font style=&quot;font-size: 25px;&quot;&gt;&lt;font style=&quot;font-size: 25px;&quot;&gt;Двудольный граф А(3,4)&amp;nbsp;&lt;/font&gt;&lt;/font&gt;&lt;span style=&quot;font-size: 25px; color: rgb(43, 43, 43); font-family: &amp;quot;JetBrains Mono&amp;quot;, monospace; text-align: left; background-color: initial;&quot;&gt;с 5 рёбрами&lt;/span&gt;" style="text;html=1;align=center;verticalAlign=middle;resizable=0;points=[];autosize=1;strokeColor=none;fillColor=none;fontStyle=2" parent="zyq9DOdAs0wRqW1_xpPK-40" vertex="1">
          <mxGeometry x="14" y="10" width="480" height="40" as="geometry" />
        </mxCell>
        <mxCell id="zyq9DOdAs0wRqW1_xpPK-45" value="Матрица инцидентности" style="shape=image;verticalLabelPosition=top;labelBackgroundColor=default;verticalAlign=bottom;aspect=fixed;imageAspect=0;image=data:image/png,iVBORw0KGgoAAAANSUhEUgAAAQ4AAADeCAIAAABDmnlpAAAAA3NCSVQICAjb4U/gAAAVk0lEQVR4Xu2deVQUV77Hq7rpbhowCoKCIDtoNOMWBLfoaMaBuIRodMacSTJG0PeSMznvnTOek8nLO0km55mJekg8k8yL45uZ6MQkY+KGGhX3fYvGoAEEF5RFQJYGsWVrul91g0tY5HZb95Z169t/SXHr/n6/z+9++1bR1rfFoUOHCniBAAj0REDX0wD8HgRAwEkAUsE6AAEiApAKESYMAgFIBWsABIgIQCpEmDAIBCAVrAEQICIAqRBhwiAQgFSwBkCAiAB7qYjmiKSp42P9RKL8MAgEHhEC7KUimCOTpo6L6QWpPCJLAGmQEfAiG6b+UWLApNffmhV5I+vD5TtK7EzqMY9Of+83TxgEweFobawtyTu8ZeP+y7ccDGLr+w6bPmdaYkyQqbW25Ny+jZuOFTdSjyv6Ji364wuPewkOe0tj7fW8Y99m7iuoY4BaHz/3nVfHP3bvvddhPbnq7a/yWuUlrRWpiD6xcSFlV4r7xsX67yyppr5u2rvkqD6++m8HyhyG3tETZ8965bnK/1l7vlHeDnaeTRc8+eUXE5r2r//0fJXXwInPz0pLrf7TugtNnUfKfsRec/yzv+69LvqFJcx4Pm1+64cf769gIBbB0ZSz8ZNtF9vF4bDftsgfVYELMNn7QzKhISouovbCweyykLgYH4bXfq3WmoqKivKSguM7jl0zhoQG0Acu+kbHhdSe2pb1Q2FJycUTmVlnrf4DAunHdbXB3lBXVVVZfvXs9k1Ha8KGDwlgxNrRUFNedudVXlHXJP+bISOCJKuZ5hj9wPho25WCvIuX6yLio6VrIsYvnU/YiKHB9VcLq+V/t+tUipeXl9Dc1Nx23GE9+9XylftKGcT9SSIO6y2rw+RtYiSVThDkP6CNCzBdcFyMqTDrWnOZcNk2Ly5cf/6SzBey3XRGDJr8+gcTHYLey9BcnLVqSz6Lq6BucuH5sOj95IJlo9orbL22ddnH+yvlfnPQhFTE3jFxAcWnrjQLtqKCQlNyXLDuEpu3WUfNybWr9l23G3pHTZg168XnijK+zr0t/7UBzyogqs3RlLv57r2Ko/lmjdw6kbLQglSkW/r4MO/48LeXPi8Iot6guxbbZ2dpDZMV23q7trKqyi5UVW7eEvFW2pjHM3PPUL+vJ1pdLAY5mDB2VtJ2r2KjWZQWpGKIjI+0nlr7193F0lWXLmjCKy/HxfocOmVl1kdXA+02W6to8NJLF++UA9tsNsHobWxbNqLvyHmvJVV8uYrx7Yro6+crNjdRuL2mKYcHza0BqejD4qN1RdvyKqpcb+e1uYXNL8dFGU792H7j+yA8D/07vW9A//5Ndr1vWOLM0X4lWVcaKOtEEqL1ysXy5ybOSC7aca7aa+BTySN9Cz+TNjYmL525d2BgkOgXmjBjfEDJ3lw2e7d0sWAOCA4Jue+PxTdk/yMY/1LR9YuL7VV28uqdG+rWkitFhmnxA/U/XqZ/ay/2HTv/jbEOh91mvXHx+Nr1R2S/2exCAPbyA//80m/OM3Nfm2q21Rady/x7JpMPVaRUdAFjX3lzjMPWWFuWf+gfmw4y+VBFiiuahs5efNckgs5HkCJzGwrnx+Z/SMz/KCOrjNE7XRerCYdAwF0CGvlcxV0sGA8CHQmw31U6ZoCfQUAVBLCrqKJNSFJ5ApCK8j1ABqogAKmook1IUnkCkIryPUAGqiAAqaiiTUhSeQKQivI9QAaqIACpqKJNSFJ5ApCK8j1ABqogAKmook1IUnkCkIryPUAGqiAAqaiiTUhSeQKQivI9QAaqIACpqKJNSFJ5ApCK8j1ABqogAKmook1IUnkCkIryPUAGqiBA9Gy96JOY9u68Ie1jW69sfv8vhyySnQKOg4MgqG89eKZMsqcgRe8+gb1N7TuQo7m+ynLb9Vw8joODoML14JFWyKTi0dQ4CQR4IoB7FZ66iVooEoBUKMLF1DwRgFR46iZqoUgAUqEIF1PzRABS4ambqIUiAUiFIlxMzRMBSIWnbqIWigQgFYpwMTVPBCAVnrqJWigSgFQowsXUPBGAVHjqJmqhSABSoQgXU/NEAFLhqZuohSIBSIUiXEzNEwH2UhHNEUlTx8f6SV9KjRcIqIcAe6kI5sikqeNiekEq6lklyFQiQPTAsPQly34xk1/4zTND/JtP/+3tL3JsamOnUP7G4CdnzE5+MqqvsaW2KHvvpszjJY3Uv7de6g3iUuBMsqsYwiYtXJw2uvHgnpxGtWnEma9S+XtFpSz49RDr4dUZ7y9duaMiIjU9dbA3A4CIS4UzgVREU78+Nds//mjt0eIGBo2WPYRS+ev6Dxrc5+q+TUculldXFZ3O3JVrGjwkTC97fR0nRFw6nAkuwBy3vs/8xtkPgrEd2/Yo/KxU/qLBaBAaGu5ccdkaGlucR6i/EJcOZ4JdhXpv+Q6gC0v+/ZK3notlIJKfgERcmdeVSncKmSnQnM5xq+xiQUH5TZcbFMMX4soMG1KRGWin6Ry157asOScI+kGdfkX1AOLKjBcXYDIDvTedo6XFJpjN3u0fIHn5mA026Qj1F+LS4UwiFZ2Pf3CI9AoOMIui2fnv4KDHjNRbLlsAhfK3V1zIq42cMmt8XP+AwPCE1KmPN+XnFtO/DkNcOpwJ3CXFXuP+7Z1fDb7/Us1ec/CTJZuutHqymsWASa//ITH/o4ysMvrLxpmgzPm7U7MxOGHm7ORRUQHGFktx9j7pI8hiRh9BIq7sH/USSMWdtUEwlrlUCHLCEBDokQDJBViPk2AACPBPgP2uwj9TVMglAewqXLYVRclPAFKRnylm5JIApMJlW1GU/AQgFfmZYkYuCUAqXLYVRclPAFKRnylm5JIApMJlW1GU/AQgFfmZYkYuCUAqXLYVRclPgL1U4AMmfxcxIwMC7KUCHzAGbUUI+QmQPQVpCkmcOXvqyEjnfya/dnbXhsxTZc3y50JxRoV8wBTzT1OoXq79x0h2Fe/BqQufj7UcWLNi+Yo1h62D56ZNj2ZtqvAwMlLKB0xrcTn3HyOQij5scIwue/uGowWl5aX5h7YeKe0dF9+P4MSHWd4ynquUD5jW4vLuP0ZwAdZ6afOf3r27dEVvs7ejsaFB9ofMZBTHT6dSygdMa3F59x9zc3PQ+Sckj/HLP/6DRT1SoaZBTNwVAW79x9yRiug36Nn0WQPyv1l/ug5K6WqZ4JggtPmPXVfI94xiXIILsLb+i75xMxb9dkR15qfrsiEUaKJbAtz6j5HtKqJPdMrC+U/Wbfv08xMVDKysuu0DfvHoEuDdf4xkV/EKnZyW/nOv0//aVagLDAmRmuVotFRYmNj0yLEyJB+wfr0l5zq908dMcPqY2WzWmsqbtD8a0lhcl//YZMn3rHJnrsUUPcXpe7aGle8Zg7gENhSib9KiP77w+P2iajn/+X///UyTR+uYubmRUj5gWosrrQaufc8IpOKRILo/iblUuk8FvwEBcgJk9yrk82EkCHBKgP2uwilIlMU7AewqvHcY9clEAFKRCSSm4Z0ApMJ7h1GfTAQgFZlAYhreCUAqvHcY9clEAFKRCSSm4Z0ApMJ7h1GfTAQgFZlAYhreCUAqvHcY9clEgL1U4AMmU+swDVsC7KUCHzC2HUY0mQiQPK+ij5/7zqvjHxPvhGwt/nbZR7sr2HyVtix1KuVPpZQPmFL1ch1X369fvx5XY31pzvenjh09evT0lZb+Eb5Fh/Z8V1Tv0ZfWS6FEc2TShNDqE8cv32L0gL5X1PTfzX+ievcXn2/cc7aq34TZycElJ3KqqD/NKfmApf9ubkzl3mM1kRG2c/vPV7J5d1GqXs7jklyAOZrrbpSX1wjhP5/9tP/Zf6xYc7SU9gOEParXjQFK+VMp5QOmVL28xyWRinNZiubhM+cmhgZGjfnl5CF9SM9yY0HTG6qUP5XLB+xUWROjvfMuQKXq5T0u6aJ3NGT/64Mly/6yIcd73EsvPhVEeh49Bbg7s1L+VO7mKdd4perlNi7xknc03ayqqig6t3PbyfrwofG97t7ky9Va2vMo5U9Fu67u5leqXm7jEvwFTDT69THb6+tuu+6DHbfqrYJkxioKKnMDU8qfqrulTPu4UvVyG5dgV9HFzlz8xpwhprbeir16+wmNt9XkWdzSYhPMTnG7Xl4+ZoNNOsLti3c/ro6NY1UvgVTshdnnm4ampCZGhwSHD582c7TP5bMX6lnfrHYERP6zy58qUvKniusfEBiekOr0p8pl4E8lSD5gkudYSEiw03/M7Px3cNBjRvLEPRypVL28xyWyoRBNoUmps38xIry3zlqWe3jLxn2XPP9MRAlzI0X8qZTyAZMUpki9vMclkoqHb29dn6aEVLrOBEdBwA0CBBdgbsyGoSDALQH2uwq3KFEY3wSwq/DdX1QnGwFIRTaUmIhvApAK3/1FdbIRgFRkQ4mJ+CYAqfDdX1QnGwFIRTaUmIhvApAK3/1FdbIRgFRkQ4mJ+CYAqfDdX1QnGwH2UoEPmGzNw0QsCbCXCnzAWPYXsWQjQPAU5L1Y+uCnX//PcaWfLV+fr5ovrXdlz7U/VRdrQal6ufY9c2NX0QWOlcyNcrbsKFCXTgSvqJQFvx5iPbw64/2lK3dURKSmpw727mKByX1Ia3El37OFi9NGNx7ck9MoN8sHzceIM7FUxD4JqSmhhdu3nvP8qa4H1Uvvd7z7U3Ukp1S9vPueEV6AiX7DZk6PLd/14Xe16nlSuH0N8e5P1VEqStXr8j1zJkO4pjrm7enPrOol2lVE86Bpz/7s5oFNRyrt+kG/em/Z/OGMcXiK8b7zuPWn6oaNUvV2kw71w9TrJZGKMSp5VkLLkY37Sz31KabOiSAAt/5U3dSuVL3dpEP9MPV6CXYHXcgTQ/2v7j9wVU1GxZ07w60/VedSXUeUqrebdKgfpl4vgVREyUDLK27Ouxlz2soVxdZs6oXLGOCeT1Sz8z7L5QN2i4EPmNbiytgyt6ZixZlAKq2l+1ct+86r3XFOH5n86iy3SlF6sMufarLkA1a5M9diip7i9AFbw8AHTGtxnb5n/XpLzoR6p++Z4PQ9s9msNZU3KV+NsOLstg2FdFv/TprPhv9ane3hG7MS5kbwxSqm/1kY775nbkvlofcIJaTy0EljAhAg+QsYKIEACAjsdxVABwFVEsCuosq2IWn2BCAV9swRUZUEIBVVtg1JsycAqbBnjoiqJACpqLJtSJo9AUiFPXNEVCUBSEWVbUPS7AlAKuyZI6IqCUAqqmwbkmZPgL1U4APGvsuIKAMB9lKBD5gMbcMU7AkQPK8i6CJmvvkfTwfdVZW9LCtj+Y5SO/tsPY2olC+W1uIq5QPGJC6JVERRJ9oKMj/ZdKHFtVYdLfXVKtJJuw9Y6dbVGbkWY9SUeXPTUy0frMuj7lXV5k+lnbiSD9iC9GT/y1l7clImevqu5sF5jOISXYDpdKJwu6bszqu86labZjwoS4FTlPLF0lpcpXzAWMUl2VUEnahzmONS/n1aUkQvW9WFAxu+OXi1QTV+YKx8ojq+C2gtrlI+YKziEu0qok5nCA83nvl65f/+c39NxIyXnokxdFwYj/zP1H2iuiGgtbjdYFD/YZJdxV68//9WHLKU3LBKdyilWw6PeGN0TKDuUpma7lekO6xbZRcLCspvss5aa3HVr4luKiCRiqOxuqTo7vkNtxsEg1F9uwp1n6huCGstbjcY1H+Y4AJMNA0YNm5UuG+7u5HZxyw0N6novv6eT5SrXS4fsBYP7WbcabjW4rrDRo1jCaTisOnDnpr34uxx8aHBA+LGz5gQZskvuMH6OsZzuC6fqEjJByyuf0BgeEKq0wcsl5UPmIbiOn3AJO+vkJBgpw+Y2fnv4KDHjJ43jvRMRnHJbCgMQaNmzH0mIbqvqbnm6tld6zNPlXvsg6aEuRF8wDj2AWPlP0YmFVJ9k4xTQiokeWEMCDyQAMEF2APPxy9BQCME2O8qGgGLMnkjgF2Ft46iHkoEIBVKYDEtbwQgFd46inooEYBUKIHFtLwRgFR46yjqoUQAUqEEFtPyRgBS4a2jqIcSAUiFElhMyxsBSIW3jqIeSgTYSwU+YJRaiWnpEmAvFfiA0e0oZqdEgOQpyPbQov/YRb+fVLF6ReYl+t/sLG+5WvPj0lq9THzAiHcV0W/YjKd9jnyxXXU6afcBsx5enfH+0pU7KiJS01MHe8urxS5na/MBQ9wu4ch4UPIBW7g4bXTjwT05NL3dSKViiv3lL3od+Wp3scePdMnIxr2ptObHpbV6HykfMMErbPL0J3RC02tLUkTLpaObv96Vz9z5xD193Ddaa35cWqv3UfIBE/uMnj7elL933cfvvb30yxy/Sb99IdG/3ZTC4wXM/ESt+XFprV7qC4rgAkwXMmZCaN62zd+X3bY1W/J2bDnZEDNqSC+1aaXNj+s6890QcakvYjYBev4LmOgXGRVkvVp7x87IbqmpFWJ9fUThpmq8WJ0stebHpbV6qeuFYFextbQIfQYEm9u3EWNIaJDdUq0enWjNj0tr9VLXSHuAnqXiaLhw+sfmIc++lDw8ckDYoInzZo9sPnMkRz323vAB49v3jJX/GJENhWgKTZyROmVkZF9jc/WV01kbv/3+hsf2kkqYG8EHjIEPmPTmqwhn+ICx2lcRBwSICPR8AUY0DQaBAO8EiC7AeIeA+kCgZwLYVXpmhBEgIBGAVLAMQICIAKRChAmDQABSwRoAASICkAoRJgwCAUgFawAEiAhAKkSYMAgEIBWsARAgIgCpEGHCIBBgLxX4gGHVqZIAe6nAB0yVCwVJ9/wUpGActWDJy8MM97NqLfl2+Ye7y1Xz3fXwxWKz0rnmTCAVibKj7syXq/YUu6Rhip+5KMVWU6+ep4Xb/LhKt67OyLUYo6bMm5ueavlgXR5NzyjXylQqruSLtSA92f9y1p6clIlsNKJovYw4E1yAOayVRUXFpWWuV3l9UGyk7fzJH62qkQp8sdjIhXfOBLtKS/7WT/LbaYt9E8YOsp75NL+JDX45osAXSw6KPc/BO2eCXeU+SPqwpDEDK06dvGbrmdyjNgK+WGw6wi1nt6RijB072r/wxHcVqrmfv291aM2Pi40wOkfhljPBBdgdGqLfz8aPMOR980Odam5T7m8kfLE6L2saR7jlTL6riAGjxg1uzj6eo54b+raVAF8sGoroPCfvnImlogtNHBtuOX3ikuqs8LXmA8bKF6ujWHjnTGpDYYyf++bC0MPL/ryv8iFvVOAD1nGNyfwzK1+sLtJWxAdMyoNJXFKpdMHFw0NKSMXDVHEaCNwjQHwBBmggoG0C7HcVbfNG9aolgF1Fta1D4mwJQCpseSOaaglAKqptHRJnSwBSYcsb0VRLAFJRbeuQOFsCkApb3oimWgL/Dx6f3+tLOL3qAAAAAElFTkSuQmCC;labelPosition=center;align=left;fontSize=16;spacingBottom=10;fontStyle=2;fontFamily=Helvetica;" parent="1" vertex="1">
          <mxGeometry x="40" y="550" width="270" height="222" as="geometry" />
        </mxCell>
        <mxCell id="zyq9DOdAs0wRqW1_xpPK-46" value="Матрица смежности" style="shape=image;verticalLabelPosition=top;labelBackgroundColor=default;verticalAlign=bottom;aspect=fixed;imageAspect=0;image=data:image/png,iVBORw0KGgoAAAANSUhEUgAAAO4AAADdCAIAAAAzYtl2AAAAA3NCSVQICAjb4U/gAAAYJUlEQVR4Xu1de1RUR56+9zZ029hGmigBYXgICgETH0FQMBo1Cj6QlUiikzh6FN1Jjjkzu8k5SXbnmEzOcSbRY/RszCTrmETj6sb4QHzE+MQoRlTUoEFtxwfhMYA8WnnT3dB7m4chK31vVXXRXX37139xblX96vt9v6+r6zZd3+VjY2M5eAED7s+A4P4pQAbAgI0BkDLoQCEMgJQVUkhIA6QMGlAIA86XMq8NTZiWFKnjFcIgpMEIA86XMqcNS5iWGDEApMyIBJQCw8s9ExF0EZMXvDwjRm/K37RyW6GFMAtNYHxq+rTRYX5qs/Hny0d2Z58vN+GHUg3PePfVpMcevjfbSg6uXne0sh0/UtcIVcDU1/+YWPblml2GFit+FCE09Z0/TB38cJVqLz+8ds2hMlI8vH788jcmVW5en32LBA2nHrNk1e+e9u6ZR1vpwTUfHa0gRdQ7Je4oZe/gSUsyk/W3Dx8rTJnYe1pIV/tFpy17YeitfVv23m7URU1/MWOppfrDrDtmpME9OrUXHdnwYa5KlLL41kibE/sg75rRgSoJg8anT9UX7th0k0g5HMfzAm+5mb0h60ZnKlZzfQ0xHl739OypPrlbviXTcSdN1gcXt288VtIBQjM8dXmKpbae4D0qXRg3lDKv8fet/fbjzReqIn+bIp2dZKsqODpCKDi4+8zNVrFf5f7c0W+NHe4v3MFevqymB/cq6kQZp6dP1OR/sf50cRN5nXjfuLSUoLv711xpIA4iCDzXVFteXo79rnyEME3k9OcH5G7bXkLwadUVzNpYVVxcXybCEaXM68bODLNc3fZTI3F2j2DsuuCGUrY2XMreaYPvIPa2W3v/+t5DXvh+2n7WluZmQoZ57cjUjPigtjqv6ZNrdh0qvE+2DIprYOqsyIojH124TwjElpDAC1btsJTfz0wIHWCpvnFy987vi4gS8wqePGuEwLW+tiqFN946s/ebI4Y67MTMhv0bDF0884/HjY9qvPipwbZ6UH654LaPcgZUwgn6uORxOsPZH42ECrI2F3z9warVn+wu7Je48JVnf9mo4sDjtVEz5zxVdzIrt6pdFfXi+6sXjyR6u/KC4B0Sor74zWd/+yqnNnT2whkRv9qqImLifcfOStIYju/4+P2VH24v1E1atCBe79Dduio4YdxvKs+f+5n05kYKOUjZ9qEXNSdz7hDDzl35DwiVzHHW1rrq6sriK98dOFcfEjuc5AsadXjy3Dhz7p6csjapksm2tZfk/H39uv/OunC7tOTGqX2nSwZERAzCL7QQOG5C0PUDey+VN1lMxuuH9p1rjhgTQ5JYN2J15Pix+rt5Fxy4I5ZIHj9DiWDu2MT3HzZ7+aJRNdkbdxSQCZlX6/QDfbqXT2tDfSMnblbwVy8hcESsvujUySLybWlnAawtNaXF9xq7dgLNTc2ctxp/VeZ1YeGDG433u/fb7cba+5xPfx/8xLpkweueShrlff3sj2Q0y4qL6ANMNqq7dOB9hqYsW/zMgwOfbs2rJP3QEyJT33zFe8efv7pi2wDyAwbquJYmgq0pL4rEa9i899bO66SP59sKSIjkNUOeeibgfsHl4o5bK62PljO1EtwAWsxmzndIgJYv64ijDgwa3G78oY70c4v3G5MYbSr4vJD+DV8nS+4oZcFH7z9QXPZUflqx/PqAwECLpbG2qg53NfMKmrw08zmv/K+P3BUGBQaKhFhbjJVG3K/A2u8WXG1dlJIW33C62OI/NnWsz+0DNwi+a2ory9m4+oJX16qnCkt+dS6JkjmrRRX87PzZEdpdJ243+EROmxBsLMi+h323Zm2+kf+TaeGchcmW767UaCKnpo82Xfy8kOA92pGFEBQ/PsSYn30Lt0rIHLihlPn+o15688XobuTz3hzBtdd+v2FV1h28LSavCR4W6qPxmrjojYldfJmvbv3T5xcx766tzdezNmWlpU/P/PeBQmP5tRNf7MmrJVm7zPVVFfXdlVM91tTG+SDXsWfHtpKjX3ytyZix6N9e0Jhqiy7v/PJwER41HdGs9QU7Nmpmp03JeO15tanmTv7XGw8S/cvGFkzcJscPKjt9rpQACCIJvNN/es/7TXr97XjDurWHbd8zwgsYoMSAx9/2UeIRwricAeevyi5PGQAokwFYlZVZVw/MCqTsgUVXZsogZWXW1QOzAil7YNGVmTJIWZl19cCsQMoeWHRlpgxSVmZdPTArkLIHFl2ZKYOUlVlXD8wKpOyBRVdmyiBlZdbVA7MCKXtg0ZWZMkhZmXX1wKxAyh5YdGWmDFJWZl09MCuQsgcWXZkpI53t433il743P6arb9udvX/55JTN+wSuAw8c53o9dL410U6R8P18Bw3UdK3gVlN9tbGp41weXAceOAb00KFlNCkr8xMJslIUA7BXVlQ5PTkZkLInV19RuYOUFVVOT04GpOzJ1VdU7iBlRZXTk5MBKXty9RWVO0hZUeX05GRAyp5cfUXlDlJWVDk9ORmQsidXX1G5g5QVVU5PTgak7MnVV1TuIGVFldOTkwEpe3L1FZW786XMa0MTpiVF6oif/6Yo/iEZagw4X8qcNixhWmKEI0/lpJY9BFIQA0gHosSnrukiJi94eUaM3pS/aeW2QtKnNdIiTh3wzOz05GfCH1eb7xcXHM/KPluK+7S9TiiU8qKFB+I4oBCVv7+/3HDv4EmZKzIiqo7/UBsWarmSc7XKkaeU8eKqPCGoJu/s7QaSh9uJYL3CZ61YPKLm6Late45drvafkJ4cUJpXWI39/qKVFy08EEdOiZLtCBsMXuPvW/vtx+v+50xJs2QsJzUKT0RF+xadyMr9R0VNdXF+9pFrmuiYYBX27LTyooUH4mCX8FcDEDYY1oZL2TttgxD6OgYGbTRve/h4c3P3jsLS3GImeRw5RysvWnggDlr97fVCWJXtDXXxdSE4+Y1V//kvkd4uxtE9PS08EIewoIystATorQ3l/7h5s6LOkX07wbR2h9DCA3HsUizd4MZSvn9l35YrHKeKks7QWa1WSnggDmHF3HCDYTWbLZxW26/rfyxePlpvi3jFZS9aeCCOYyVEkbLgow8IFF8Bflqe19r+Dhj8mNqxeR0Y3V554/r9sClzk4Y94TcoJC5t2pOthmslBPsMSnnRwgNxHBCFOBTBnYgfkPiv774Y3XMr0l77/YZVWXfaSObm/Sa9/na8Yd3aw+UE8uucUR0Ql5qePCbcT202lhScEP9FUoL/LxKKeVHBI6YGcUgU1TUGQcoORO9tKA0p9xYXrnk4AygbDA+nCNJ3Dwacvyq7By+A0u0YgFXZ7UoGgHtnAKTcOy9w1e0YACm7XckAcO8MgJR75wWuuh0DIGW3KxkA7p0BkHLvvMBVt2MApOx2JQPAvTMAUu6dF7jqdgyAlN2uZAC4dwacL2Xwwei9EnDVQQacL2XwwXCwZDC8dwbQTpFoAuNT06eNDrP9qPLny0d2Z58vN/Uez0lXGfOvoOUTolQfDFr8SKoLZVXuF5227IVI48kt69es33K6MTpj6ayhrjwcKvpXLHtz6diW748VtkgmJ9PoFZ6y5KWYxtOb1/7lw88OVYamZaZF95MZ01sza3ho5UUrDi1+euO+xzUEKauCoyOEgm93n7lZVlFmOLU/t2zgsOH+CANlpiZtZs2/gjU8rPlp0OJHTi8IG4y2W3v/+t7DOHw/bT9rS3MzobOQHB6Edtb8K1jDw5qfBi1+5KSBubgK+rjkcTrD2R+NrpOyXEqY7bR8JzCntdudFh7W4thNmFYDjpR5XdSczLlDDDt35T9QjJJFkyKbn8Y/GfPTcBwPrbxoxaGlWLtxEDYYnWP5/sNmL180qib70x0FChIyx9HynbBLMWYDLTysxcGkAb872qrM+wxNWbb4mQcHPt2aV+lCywn8/CRG0PKdkJgCq4kWHtbiYJHgQGcUKXsFTV6a+ZzXxewjd4VBNkOMwAB9t6GKA1MTD2XMv4JjDA9rfhq0+JHTC8IxVb5/wvI/L3iy51bEfHXrnz6/2CoXvNd2h80DWPOvYA2PyDpTfhoU+elVUN0XEaQsOR6/0WEp408JIzyBAZQNhifwADm6PQPOX5XdnjJIgE0GYFVmsy6ACpsBkDI2ZTCATQZAymzWBVBhMwBSxqYMBrDJAEiZzboAKmwGQMrYlMEANhkAKbNZF0CFzQBIGZsyGMAmAyBlNusCqLAZcL6UwQcDu0gwAIUB50sZfDBQ6gJ9sBlAOUWiGp7x7qtJj3U98pHj2koOrl53tJL4UWXYIB8ZQMsvgpY/Ay08EOeRUqNfUPn7+8v2ri8rvHT+hzNnzuTfMT8R2r/41LELxfVED+0Tp+K1YQkTgmryzt5uIDwg6BU+a8XiETVHt23dc+xytf+E9OSA0rzCauzTLaI/Q+aKjIiq4z/UhoVaruRcrSJ7d9LCA3FklSjVAWWDYTU9uFdRUcuFPJc+VX/5i/VbzpS50puIls8DLX8GWnggjpRQ5dtQpGyLwmtHpmbEBw0KHzd9cowv6ij5+Ql60PJ56PBnOF/eSvjZ8BA5LTwQh0AMPYagitLaXPD1B6tWf7K7sF/iwleeHYw6zjF0UqNp+TxIzYHTRgsPxMFhnUDKnLW1rrq6svjKdwfO1YfEDh/w8CaQcGKHh7Hmz0ALD8QhlAbCNxi8Wuerba9/0NRxX2VtqG/kRLMtnnOxGwYtnwdC4h4ZRgsPxHmEWrQLCBsFITL1zbfmxWg6A/IDBuq4liZXesaZzRZOa3szdby8fLTeFvGKy16s+U4oFY9cgRGk3H634GprbEpa/NDAgJCRM1PH+ty+fKPe0ZslOWD222n5PNDyZ6CFB+LYrzlKC9IxVV4TlJCW/vyokIFCY/m10/v2nLhF+p2w+F2I36TX3443rFt7uJzsa1wxLSo+DxT9GajgoZWXguNIKhpJypIRcBtpSBl3TujvAQwgbDA8gAVIUQEMOH9VVgBpkAKLDMCqzGJVABMBAyBlAtJgCIsMgJRZrApgImAApExAGgxhkQGQMotVAUwEDICUCUiDISwyAFJmsSqAiYABkDIBaTCERQZAyixWBTARMOB8KYMPBkGZYIg8A86XMvhgyFcFehAwgHCK5JeoqoCpr/8xsezLNbsMLa77vbKIB/wiZEot6CImL3h5RozelL9p5bZC0oMJrPEsmTWSD0ZnBGFQ0sKXY0v3bMlxyDuAHR8MpfpOKNXfQ1LIHIe8weB949JSgu5+u/8K+a/uZbAgNoNfhDRRSvX3kM5aPBkn16Gzndc9nTorsuLIRxfuu3RnYUMDfhHSNevw97B1QaytvWis8WwPZ/d1pFWZ10bNnPNU3cms3Kp2VdSL769ePNJBmuRgIbSDXwQCSRS6sMaz3ZRQpKwOT54bZ87dk1NG6hNnd3oHGsAvwgHyMIayxrNd6AirqxA4IlZflHOyyJVGcY8mAH4Rj3LSF1dY49lujghS5kXDCa9h895bO68zCs+3FdiN54SGX3weTLZ9e4cPRgPB101KjUOrBKzxI5cXgpTbynI2rr7g1eWgogpLfnWuXNQ+be/wi5g8ZW5S1XfXjJqhU6Y92WrYUoJvRKDUODZ/D/+BouONyk8rLkP6gMBAi6WxtqoO81OVNX7kRIV9TFW87Xt3qc/u/9hcQLAQ2tDQMA8A3wmJuirY30Mia1FYsbGxkh2oN9KQMnVQEND9GUD5BsP9s4QMPIAB56/KHkAqpOgKBmBVdgXrMGcfMABS7gNSIaQrGAApu4J1mLMPGAAp9wGpENIVDICUXcE6zNkHDICU+4BUCOkKBkDKrmAd5uwDBkDKfUAqhHQFAyBlV7AOc/YBA86XMvhg9EEZISTGMVV6ZGnDEqYlRrj+caz0MoJILDCA8HtlTghNfecPU395rHV7+eG1aw6V4f9CmFrCrPkzKBUPx5ifhqSAUKTM8wJvuZm9IeuGuSOW1Vxf40Idc17hKUteiinbv3ntNaM6fMr8jMw04wc7rrdIJtpLI8TphZQel0Q/jSWZyfrbh48VpkyU7irZSotnyUkQNxiCwHNNteXdr4rqhk5Ny8Tuo2bwwZAmlhY/rPlpSGeN6JUg8IJVOyzl9zMTQgdYqm+c3L3z+yLXPeSaNX8GpeJhzU9DTspI32DwguAdEqK++M1nf/sqpzZ09sIZEd5ygfu8nTV/BqXioVVIWvzYxYOyV24vyfn7+lPG0nuN4g65bN/pUW+NjRgk3CJ/RLVdNDgNnf4MFXWO7tohDg7r5H1p8WwXAYqUrS01pcUPIzQ3NXPeatevyqz5MygVj13pYDbQ4sfutAgbDF4z5OnEMSH9u9wDtD5aztTqwvu+X/wZOrLq8MEwExz/hjh2VUG1gRbPcqAQpGy1qIKfnf9KeuLwoIAhw5JmTwg2Gm7ec/RzXQ6Y/fYOf4Yw0Qdj2BN+g0Li0mw+GNdIfTAgjn2iRT8N0UMjMDDA5qehtf0dMPgxtf3+dlpo1ctO+IeX0Y6peg8eMztjRtzQxzWm2qLLR3Zln6/A9Af5BQcN8wDwwZCuKxV+GPTTkMwaTcqSITAbaUgZc0ro7gkMIGwwPIEGyNH9GXD+quz+nEEGTDIAqzKTZQFQ+AyAlPE5gxFMMgBSZrIsAAqfAZAyPmcwgkkGQMpMlgVA4TMAUsbnDEYwyQBImcmyACh8BkDK+JzBCCYZACkzWRYAhc+A86UMPhj4VYIRCAw4X8oc+GAg1AW6YDOAcoqkKyivH7/8jUmVm9dn32px8TPbleo7QSsv1vwrqOUlpW+Vv7+/VPvDNl43ct5vh9/Yuv18rWNPuubFVXlCUE3e2dsNhG8Ir/BZKxaPqDm6beueY5er/SekJweU5hVWYx8kUWoc0b8ic0VGRNXxH2rDQi1Xcq5WkZ2TYI0fGZ2ibjA0kdOfH5D7v0dLiH9yLwMEvZmWz4NS47DmX0GLZzmFoG0wvIInzxohcK2vrUrhjbfO7P3miMHhk85yyOy2K9V3glZerPlX0MrLriC6GlBWZd537KwkjeH4jo/fX/nh9kLdpEUL4vVdh1bl4vddOy1fBaXGocU8a/zYzQtBykLguAlB1w/svVTeZDEZrx/ad645YkyMy504O30V/unwp4NS49gtOWYDa/zYhS+/weB1YeGDG4vud9sFtBtr73OR/X14ro7wts0uGKwGWr4KSo2DRaZEZ9b4sQsVYVW2mM2c75AAbdeWQh0YNLjdWOM6HdPyVVBqHLu1xmxgjR85+PJStjbfyP/JFDNnYfLIsCHBURPnp482XcwtdJ39IS1fBaXG4Rjzr6DFs5yUkY6p8pqg+NlpU0aHPa421dzJP7zn4KV7xPZENMwDqPg8iNQoMg6D/hW0eJZUM5KUJSPgNtKQMu6c0N8DGJDfYHgACZCiEhhw/qqsBNYgBwYZgFWZwaIAJBIGQMokrMEYBhkAKTNYFIBEwgBImYQ1GMMgAyBlBosCkEgYACmTsAZjGGQApMxgUQASCQMgZRLWYAyDDICUGSwKQCJhwPlSBh8MkjrBGFkGnC9l8MGQLQp0IGFA/hQJpx6zZNXvnv7V41PbSg+u+ehoBdmZdBKY/28MNV8FQRcxecHLM2L0pvxNK7cVYvsPdOGihQfiOCAOBCmL0a0PLm7feKzzMY+a4anLUyy19a47DeUVnrLkpZiy/ZvXXjOqw6fMz8hMM36w43oLLg2iX8SSzGT97cPHClMm4g7u0Z8WHojjQBE4DmGDYW2sKi4uKSvveFXUD44Ms1w991Ojy6RMy1dBqX4RtPhhLY6czhFWZbNh/wZDVxz+8bjxUY0XPzW0ygXuu3ZavgpK9YugxQ9rceQUhbAq9wihCk4Y95vK8+d+Jt1UysHBaKflz4AxpWRXWnggjiTN9huxpKyOHD9WfzfvQqXL7vd6JELLn8E+N3gttPBAHDzeH/ZG2GB09+V1TyWN8r6+88cHLtsm90ySlj8DIXGPDKOFB+I8Qi3aBfRVmfcbkxhtKjhb6Lobvs6UaPkzoBEk34sWHogjz7VUD2QpC0Hx40OM+Xm3XG7lSc1XQaF+EbT4YS2OlIxtbajHVNXDM95ZFnR69X+dIDTrfQiEhnkAFV8FBftFUOFHrBhrcSTVjCplySBYjTSkjDUhdPYMBpA3GJ5BB2Tpvgw4f1V2X64AOdMMwKrMdHkAHDoDIGV0rqAn0wyAlJkuD4BDZwCkjM4V9GSaAZAy0+UBcOgMgJTRuYKeTDMAUma6PAAOnQGQMjpX0JNpBkDKTJcHwKEz8H+ltZFXgazADAAAAABJRU5ErkJggg==;spacingBottom=10;labelPosition=center;align=left;fontSize=16;fontStyle=2" parent="1" vertex="1">
          <mxGeometry x="360" y="551" width="238" height="221" as="geometry" />
        </mxCell>
        <mxCell id="MFcc1h0NgU5ymY9IiPUq-1" value="Множество" style="shape=image;verticalLabelPosition=top;labelBackgroundColor=default;verticalAlign=bottom;aspect=fixed;imageAspect=0;image=data:image/png,iVBORw0KGgoAAAANSUhEUgAAAYkAAAAsCAIAAAAfGdMDAAAAA3NCSVQICAjb4U/gAAAN8klEQVR4Xu1daVQUVxauqoZuum0UHEFZZJF2OSFmcIFITEwYDYsInGDMNjHOROMkmTOTSeJMzszJJJkfzkQ5JiZ6xjlMYlzGuMWFICZKAhoxasQFBZEdWdKs3WxN02tN9UKL3VXV9YquOtX261/0q9v3ffd7r+7bivrQ+Ph4BH4gA5AByIDAGBCFhoYKBhI6YUbK87996dmcRQG1F+r6ccEAg0B4ZACbuvSP767PmB8jVTc29uhgL+CRe0FVJaTcJIrN/P0Lsc0Few+V3OrS6M2CIgqC4YsBfKSrrrJaKZufnRbWXnaz28RXxbAeYTHg5xYOFp7+9ptzrmz+tKTbmi3QCUlr30tX5W882uDhXoNNDArUNl6/2qh06xiTx6U8/+uMB4L15Z+9t6/K6DYKcgNJWFJW7pPzYiaLDeo7104fKfhJqSe3pCsVzVr1/muLJ6KjNqbWos0fF3eyz62iaUv/8KdH2r/I+6pmhMW0AYvO+usbS0OwUTxm5akted+0s8WDBievf/vxzl1bC+rZoEHE81/e+NJD/mMZNLUV5X1U3EGByKRRKTV95TUZyRGBYhTRs6CArrngNS9hwH1uMnfWNQymKGbISruHLL3ELzouxthwsdVt/gBmwKwf0UsCJI57nMqBf+TjL69LC2449V1V+hIqIwblAXNyXlk5o/7r3ccbNPLZqc+sWmvs2XSs0cDgp/eYmJtPb99UJiJwE7kuJzu+/+ItNcVtx8Q1NiU5d2lw1cHPalmlAmL0QDHUWFuw/dhtWyi4YbCXNR5U/tCKpbKy3SfZJSZbwHj/lS/zv2u1gpDMylqfblQNusk4aECABNeNwCUdky5zf9o4Blfq8EytdY3GaEWMbeQTRShm+DXVNQHfwdQVOK6MjOiILkkMlbQfVBIapDq57eP/nW/V0hq6uSiKnBOHVZw8cr62vaO95ofCsvZJM2eFMiDE2S+u7+/q6FAhUU8QOeXazq27z7ezmH3ZvaJBC3PSI5pOFt6wjgSsPhiGIsMq5eino2eIdWtJFKnLAsv2F7eyjwjXdLe0tLbb0HQMhihijDcvVWrcRIcSo5RBp2OdU1kRB38kJAbcz5sQxNBUe8cvTREhqmwyYZPj4ib9fLV+mLprWfYy38qIFN0N09xduj2vqIW+n6H+QeGh0mF1n4HatdUlPnS14LDlDybYabg21R//1weO62iANAAf0WrdVE7lD5X+MmtVUoRpwC81pferb6r66IOldCN/KCtT0XH6o8t9LIFYPGMohktnpr+6/OHoQGPP7TNHDp9tZhWYX2RK5oMYont9Yzqqrj9//NDpmgHgwAw1hdtr7AGjv1iYPFtzZUeNjoqB0XJzf9+AOC4iVHJbCedO7si6P68zub9xTUPtz4ELFFOwpi7ZjLipvXX1dHeOuefC7i2VY2c/uFFDs8jBpi57Y8Py6X4oqv/57M59dazH+HG0EBa8MG2RvKbwupplSsC1FQc+bJTKwhdmP7v6xaEt/z5r250DwoRKZy/Pnjtw5pOybrNo9jPvr5Ud+duuCvDNNBTD/KOixEcP/afIP27ZqqzVGW0fHq0H5hUNSsxcLKk5tqfwRq9kZuqal9Y835eXf5EtRQQVosiHF03v/OnQHfcxmVuLD5QoXvnLh5k4buou+XTTCTdjGxDT0NgLGGCSmxBc3VCvylDEyb9TT1dEDdeVUO1i2gI2Dau7hpnHbu69sHdLlb9IEpq08rnsx8q3fNsGPDYzr43EEpXPzl73VHjNgU/L2T+3gOsGenQDSM+3J2ISXo+fFfhDN7AvcWzaUwsNZTtK24m9vDHTThLItEXm1tL/bv1B3dalIXhs//pcwjuJcVOweiUgq1jYokcjqk/suqokJjnD1d98fWneq/MfCLx0foBl/kbEiuTE4Kbiy0yOCbCQRZmPS2/u33auVWs0DrHfMKOlCl4UMAOMchNiVtY1aBcrYqXK2FiksaCFdh/cPg+6Z01HO+4ZNT0dGoKjrusNw8lR4QFoG82K0dNcohNmrli/JqG3YMfBCuBsYgWDiuVBUvNg/7B1MoAPDWoQYn2IIqDesLAH44ObS880s9/asZGDj/S2tTh40g5rEX/xPcdkjDhE5TGxIZrmvtHpllmt6kMUE2QowjI3ofK5ixP8qw9fZ0QMNnV6hKn5+yuNbbSdjVEo0MgrGWCWmxBjS20Tkq2Yq5w+oeVHN/vg5p4fd+XdZL6mu8ubWOyP63Tu9ps8yDMqm5H+ym8W9J/Ysfdip/t1BnnNmCJrw4v+B/+x54ZlEwUNnCRHRoZZbO+gxBmA38ynP9jytK0eFDVVkNdIX4pKwucumNZXca3Fut8slUkRvQ54QYcgRoMBCQqfJkXbrX7EYREhZvWPLBMTQczk+Y/M0Vd8XuVuF9wWHa7X6f2l/sTRBMxN9O19315lmJsQXVNdi/yxxQlByssN7joX4JrOwS0mkUr0IyNulx6YLDh0EjExEU2WEvdz8LSwMKNRo+oesM03sJC5KQvCtbXnLzS6Oenyi0hZu+4Jv/IDp5uwKWFhBA58RN2ptp/cM/Zjbqq4qVuTnpM0dK7FGJqYlShrOHH77hE5Yz+m9tL8zZf97KeUopi0154a2+0Y+8GNosjHnlsRJ/2qpGFIpnjy0Uh1RUGXg1WmfnDt7fJK/ers1WnGb4n9JsXS3Hn6K59XOZIuUz/2GLCIpOQodXlBPcNZIW45tA2WEkMcj2PVfXube2VgTHMTPlRf17Eya3rXqfpx7IXSU2TWEc83TY0Kk9a1aWkSFDoh4dkNz8wZRf70hgcRs+rs9o3HGi0jLBaSkLo81e/7ymJ3uyKoJHJmtEzit2TN20vswAw39777+RXrGRJzP7i2+thnx3JyU9e9NQnTKG+V7Dx6UeWonLkfxDDY3TE4SpFo4rAJkd0lDMCPqbV45wHJqow1b66U6FXN1w5/carZMflg7gcfrDiYL1mR86tVry8T63sbyw/kF919FpS5H2sMxFZT0pT2c5cYrtCI50Siw+W43mBy14p3GYJ/3WcMoEL6X1/R1IdfXLcyYYqo6/tPWJ7LoBOTf/f3XHHRpm1nesbTraEf+o7uKX5IarHsV/45Mwrvqy7auevMOB6sIvENi7yIAabzJl5CMnVe2v3Pa0cnBxPDPc3EiQ6Lf7Qiylh7/GrveBITUQH0Q8ey5/ghqYU4t92Td93QpxqAT16S0OM7RSweg+aWHFw/2NvZM8hi79aCSxRJPHVcefEG6x1be3DQD30re4of0lqMGqIHwMREyo0vFQpqTedLxMNYIQOQAVoGBDdvokULL0IGIAO+wgDMTb7S0jBOyIB3MQBzk3e1F0QLGfAVBmBu8pWWhnFCBryLAZibvKu9IFrIgK8wAHOTr7Q0jBMy4F0MwNzkXe0F0UIGfIUBmJt8paVhnJAB72JASBpQhIQLmD4dqP34msbzumkQP0iLQP6d2RJ2/xl3ewkpN4Hq04HaOzct4HeP66ZB/EAtAPl3okvg/Wfc7cXkf32d9dcQXHMp/7391Z5+6ReAPp21lUjsOdWt87Rumit+bvXyvAQ/tZ6dh3XrXPm33/wc6QNyzT/XuoSg+EHtnUcqJrmJ+A2uqzq6/USdPRvh5mEabQLnKhh/Z6pPN+rQ2Z4X3ToP6qY54+dFL88L8BPdjVrPjkP89n7FrT4gh/h50SUExQ9qPyZbMMxNCK5VdSiVbF9byzA9WV51ONGiT2dk9oaTe+3tunW7LncrXkhnWCOZmU23rojQrbO8ZK6zsGzeO4mEbl2jTRjXk7pp9+Knr5cMKUWZVS9vgJiD5eYukZTv3HquZcz714WP36pnN2jRsyPek4PKE5cTenb7HHp23OG3sWnXByzM84Q+IMnbNLjE79AlJKmXoq9QFdt0Cfd96fL6LFD8oPZjADHNTVQxkJRzrU9nr9JFz44f3TqP6aa54OdHL0/4+On17LjDb+lXhIoxx/qAXOLnQ5cQFD+oPXhuQgMWvLx5vv13pjuFm7eVUuqvca1Px6eenatu3fh105jgd62XZBCgK6LUy/MS/LbYSPTsuMTPhz4gp/h50CUExQ9qD56bcN2t4479Jlw/QPtaSkAtA1B9OlB7uluY9hqpbt34ddPc4ietlxYpyUUqvTxvwW8JiUzPjkP8vOgDcoifF11CUPyg9uC5CWS/iXN9Ol707Kh06zygm0aLn6pekvRDUUSvlyd8/KNhkevZcYefH31A7vATKkE86BKC4ge1Z5GbKO4DsmL+9Ok407Oj0a3zpG6aC36aesmYJi+j18sTPn57VBR6dtzh50cfkEP8vOgSguIHtWeRm1DpZEIHbswzBF39OqrDNMA1nQMNU3260R842/OiW0epmwao10YE4YyfF7084eO3NS+Vnh13+PnRB+QOPz+6hJT4yQdKYjLHWmeQ4TkdKonP3RA/Wj1Hz14y1KdzkOBkz4duHbVuGqBemyUIZ/w86OV5A35r+1Lo2XGJnw99QE7x86BLSI2fPDWB2t/jRVBaBqD6dAD2HtBTo9VNY+Uf4ifv0eSlkH9nXgTUf5yhEd9p24vE3qWI4bzJ5XecFIDq0wHYe0BvjlY3jZV/iB+kG0H+ndkSUP9xhkZ8p20vEnuXIkHlJgs6qz6dQ3nbBa9LATN7m57a8fHp1ll00zQuAKwF7P1D/OSMkpRC/klIEUb/IQGGIDTtRWrvXCioNZ0zOPgdMgAZ8FkG4LvlfLbpYeCQAUEzAHOToJsHgoMM+CwDMDf5bNPDwCEDgmbg/5fYdhRCnDu4AAAAAElFTkSuQmCC;spacingBottom=10;labelPosition=center;align=left;fontSize=16;fontStyle=2" parent="1" vertex="1">
          <mxGeometry x="40" y="840" width="393" height="44" as="geometry" />
        </mxCell>
        <mxCell id="FnMijFyFn5ux3ZuiBSjn-1" value="Вектор смежности" style="shape=image;verticalLabelPosition=top;labelBackgroundColor=default;verticalAlign=bottom;aspect=fixed;imageAspect=0;image=data:image/png,iVBORw0KGgoAAAANSUhEUgAAAJwAAAClCAIAAAAmrwN/AAAAA3NCSVQICAjb4U/gAAAQyklEQVR4Xu1da1AUVxbunoEZBjEKQQSZAAoIgm8RBYxGCYIPJOIjyW6Mlq/dpDb70qrsVlJJdqvcRC2jVXHXrBtNWBNL4wPHt2jUCARUiKIijIISYAJEYHjKYwZme2YQZaV7+t4+NDPt7V/U7XO/e8755tzppr8+Q4eHh1PkkFYGZGKFQ6v8p8TFBLnRYi34DK8jGqmUKmBKXHTgQEJq33/anDiXkLkFznz913PC3Ntzvvjgm3wjp3Hfn1T6RCYmx00I8FAY9D9dSzukuVLRjrOqwnvS/OT4ScOfVxjqSvO+S9VklbeaMICgcDCW5pzCUanO6hlr1q+a3Pr9ufxWTgyRTrqEJq1ZFKS/mLJt87aU9ObQJavmjXDGWNtpeMLKV8Oa07/a8o+Nn5+q8k9anRTq0o84GEvbmMJOKq30Glx78rOtX2eWtdgAEeW0XB0aKMs7eSjzjq5Sp710LEM3KHikF7v/bE7JhoaEDi45n5pxt7KmujRHk3ZbGRqmlrOZs45D4bAugH+Cffs1Nf2oOWAGZjfBXxZjZkfRkY8/6p5Hu6hcTK0tLei7Ju2scKZaWh7tt8aWVoN5BPmAwkFe2PYE9E+6bcy+t5C5R8RPddNmXdejk9rlnUwdv27De68EYdDZIz4oHMikOSCptFvIgtULh2kPHMypx+aUMjVV3L1z5+eGToHZhMIR6EaP6Xayt/IOiR4QPH/t8vE1mh378wRQSlGmuhtHU25QlDyE99q9GkLh9AqOOehQlUq7jkhYs2JS/fEde7KrcO+vTAaDkVKpXLpumJ1cVc5GZgT5gMJBXtj2BA5SZa7u3j7M4e2hommV+W/vIc8pbEP2lYWT78xVq19yytWk3Zd5mh3z8XZ/RA3Cmp1VhQV1AbMWxgQP9fD0i0iKG9WmvV2GvgtD4SC4zteUZv3fLz0w+jcfLg19cn/urP1++4bUex18wZ+0oz1mvPOXSO3WLWcq0BNoBqIHTFn7t9dHPemP4eae93fltiG7o/COSEyOnzjc/E+MsrzzzD8fyjD/+QCDgxyAjQnspNqYiHpaMKmoCz7D9hzb7zOcFQcPXbRKdfA8OZT7pFIdii5+zhJS+eXJoawIqQ5FFz9nCan88uRQVoRUh6KLn7OEVH55cigrQqpD0cXPWUIqvzw5lBUh1aHo4uesaKQS3S8/QiCsRCOV6H4h6OKHwal8gNLZ8nOFhxWIDlk+csmHb8U8160q7yg7sWnr2SrUB4KKiSs3vDm2h8Spo/zE5k/PVqIi8QgczYSDVIvOdkTR0ZQjxc1uIbOXLlllrN6Yes+AtgCcNaNDXrk63r34zLn8hOkCYDtL0rZvzJAzpDIf2qQF4fXZt/V4PJjqc/fuPGd9wK4cmbg2wVjbiK+aEhDS/01l336hdLZQvoLpkE3t9b9UVtZSfi8lx7pf270tJVOHo/M3NT8oLS3TVViOysYhQQHGm5dvNdsDqeyVCqWzhSIVVIdMq8YlLon07Whwmj2z5uCp/Dr0UjVoj23XdgVHPx8RFdKcu0OLrsKASs+TOOyV2sNKuM62L5zHxzS15O37ZMOmfx7Kd4le9saLQ/ilgW09uXrK1Beqrlz+CUO/xoYpZJxHNDA6WyFO9sFcU1tDdXVV6Y3Txy83+oWPFPQyniIoarL7/eyryNdafRCXBdIWqd06250CdbZ9FQAyLq1wcx/k+uhrx9TU2Ewxr3Dgv2FJu42JGe9ckHVdkAwZOQyuCZykguhsuVbvj3OyoMT17y4OU1rXpgcOcqNaH2K8k9PlO+0xMTq0PS8r3y4ukaxOsV8oUV0625x9Vp0tY29q1VfpscSUEOwxOmSvQUxJyc06ZMqsQzYam2sfNCBeunbez7vZtjwhKbIpvdToNTlxsmvx8ULsOxGZb2SUnz5HU4ToBURCWDHYSaWV6mB/V6XT9OXrHt0V4upsWVdHOUEPGP/q+sc65MXrR1NYOmRTS0HqF6lJybNX/3mQrLni9vndh7NrcW9EmK/TSE9d+uVyLC00SvgotqKpCYnuF4UWYbac36nCoMns/sqAaJXaXwE+i+uSSpUg64RUQqoEMyDBkEilElIlmAEJhkQqlZAqwQxIMCRSqYRUCWZAgiGJVqlE9yvep0c0UonuVzxS2R+9UUD6WMBYoHTIUH16oXAAU2SBknt5ebFhNuryf7zyQ2ZmZs49w1D/AaWXzl0tbcR9cEgznbmn+dZkZxU3YT68dAld9PtfBf58Zt/+4+kFzX4zFs4YXJxViC7ZdRo+73crRtec/WbP4XPXqr2mJcd7l2fnVyOLxqBw2NKPP86x/QLpY/F96zkTSocM1acXCgcqP0/gcGy/ZisAfSyU01A6ZKg+vVA4UPl5AoejUs1WsPpYMP9Jv1/OVNoglYLUx3I6wv8kjA4Zqk8vFA7/+G1bsm+/jD52sKqzsf6h5QrisT62f+WtpN+vbU45xNzA+lgevtg0AdEhQ/XphcKxGTW6Afv2a9HHhjP62BE+3n7j5pr1sdfw9bHonj01g/T7fSolLANcwjNa6TslKfnl8X4WfWz60cPni3DvMZnraNLvl4UC+GEuUkFXE0wqqDfSBmPffqUdt6SjE61SJZ1FOwuOVKqdEQLhDiEVIot2hkFItTNCINwhpEJk0c4wCKl2RgiEO4RUiCzaGQYh1c4IgXCHkAqRRTvDIKTaGSEQ7ohGKtH9QtDFD0M0Uonulx8hEFbsyofH6HLv2Hf+GK37cvNBbb81UWK8kfkn/vUPsY/bCHZWnNmy+ZQOvVUkBaXXhcKBIPJJDNukyjyjmBaq+fu/uNOfjDI+07SMNt7RbE8ttLYcNhkaazAYpZyGJ6x8NUx37Kstt/WK4bNeW7I6Sf/J/oJW1NRC4aCua9veFqn04IikBN/7xzbfwH8+btsLfhYyGU09rGW66wrqI92l192ecbeBUZXXaNLCJySFqeUFRYgydSgcfrEjWXGTSruNTZwXVJn26dU6TFk9kjM2jGW0zKQKTvjt3Cn+A43VhRcPHfi+BL2pIJReFwrHRtA4p7kulGhVyNwFYxoupmY86JSHLP37phXjuD8DOA4gzKFlMmc/P0Xut5//678Xav3nL5sT2KOFPQIU8w2tjl+34b1XgvARrMtB4SA5b8OYgyXF8PiFEYaMHRd0zMYkt4EjwunOsgv/2XZJX/5LM/NNqjuaPv7dyYGesiLMnzi36nUrG3C+lZ8MFgoHMoHspMp8Roe7l1y4WGIv/TFNrTXlpd2xtzxsoZwV+HVmqrtxNOUG82kNEZZOKBxhXvSczU4q036Vcgpe/NGWxdYZNN2RB7kyKhatHDZmkndd3rVSS2ddlauKam/DuGR6rNdtN+M4uaqcjU3Ir7wx8naDwUipzO2fheGg5oGHPTupHboLOzdddepqWS0PiH9rIQ+8vjMxGeXqF1+bH6g6eL64yTUobppan6f5BX337KwqLKibOWthzIPTt/XKEbPiRrVpU6w/Q4LkPBQO0qL8jNlJpQyNDyobH6HIn3vYQbnyw+wjq46ys7v3KZfMWf6nRcr22pJrB748U4J4G2LxzHj/9O5vnZPjV6xfqDDoy/I0uzQFOLfgUDjw6RJNTUh0v/DksSFy3dKwzSHjdp4B0SrVzvMgKfdIpUqKTmswhFRCqgQzIMGQSKUSUiWYAQmGRCqVkCrBDEgwJFKphFQJZkCCIYlWqUT3K96nRzRSie5XPFI5Hr3B6WyBw4HRIdPuUWvXzaj6apumCOfBmzkmB9T9QulsgSmF0SEzOsn5sa4ZKSexGQXTDwPnh4HjqFQKRmcL6zOQDlkZNPvlgRnf7C3DF2A5qO4XRmcLSSqQDtlJPXPeaBnV9vaGBFpflHnk2zQtuqrQUXW/kDpbAG6BdMj04MnzYpTa7/Z/9vcPNu7Nd5ux/PVI9y4pFrqX9qj75bj6tehst/479WpxeVnhpaPpZQMDGZ0tethQM7p0yIctOmT8Q+YzdZpvwfEjP1Y8NLbrC04dvdwSODFsIC6rjtXvl4LV2eKz0DUTSIdMuwUMH9JcUvdIXNqpr62jgga40pT51Rr0w8F0v0A6W/Q89T4DSodsNBiowcO8VbTOoh9W+PgO6dT/gM6oQ+p+oXS2vVOEPgqkQza1FObcal+2YFm88fSNGmVQbPKE9txd+egvWjmm7hdKZ4vOX+8zgHTIpsa8/TuV85NmLXn7ZUV7zb2cfTtPYL1MTXS/wps49840Ge0lA/14NduLN2QIJANE9wuSRvsCIZVqX3yAeENIBUmjfYEQUu2LDxBvCKkgabQvEEKqffEB4g0hFSSN9gVCSLUvPkC8IaSCpNG+QAip9sUHiDeikUp0vyB88QIRjVSi++XFB4gRl5rQugCAPhbEU9Lvl3cabZEKoI/l7YsNQygdMlSfXigcG2FjnLZBKoA+FsMplikwOmQovS4UDkuwQoY5SQXRxwrxrudcGB0ylF4XCgcuP91IHBdKsPpYAN9Jv1+eSWQnFVgfy9MfDjNYHTKUXhcKhyNw5FOs2y+0PhbZs6cmwOqQofS6UDhPhStggL1Su/WxVnSrPrYGXR8rwLkeU5l+v2OjJ/oN6JLSA/T7tcBb+v0ynXuRj8e6X2E4yAvbnsBKqlUfG8boY8cFDFOHTH/NrI/NwNDH2vaBn4VVh/xGcvRIX+9hwTHzmX6/2ju4/X4DmH6/wUM9PP0iksz9fm/j9vsFwOEXPZKV3MvLi2VCe1Xh3bpBo6Jj42KjR3s2Xdd8fexWPfZrLLQqYMo035rsrGLc30IxNZTcqfGYEDd3btyLY4e23Dq290R+I4Y/nXX37+o9xsXOmRc/Y6K6U3t675FrtRilCoXDkn4Bw6KpCUm/XwEsIU5l3X4RcYi5HWVAtEq1o5gl7wqpVAlSTEglpEowAxIMiVQqIVWCGZBgSKRSCakSzIAEQyKVSkiVYAYkGJJolUp0v+J9ekQjleh+xSOVVflAKSau3PDm2B4/JdxRfmLzp2cr0X+zFCgepU9kYnLchAAP5icyf7qWdkhzpQKrCyhUn14oHKD0dMOwk8qYmOpz9+48Z32ArByZuDbBWNuI1esNxGuX0KQ1i0YUHU05UtzsFjJ76ZJVxuqNqfeQf+wYSq8LhQOSnB4g7NuvqflBaWmZrsJyVDYOCQow3rx8y9L6rV8OuTo0UJZ38lDmHV2lTnvpWIZuUPBIL3b/2Zzs0uumZtytrKkuzdGk3VaGhqnlbOas41A4rAvgn2CvVIP22HZtFzD9fERUSHPuDm0b/kpCZ3YUHfn4o24Q2kXlYmptQe8+R0HpdaFwhOall/m8Puly9ZSpL1RdufwThuijlzWFD8ncI+KnummzruuxNw6oPr1QOMKT8hiBD6mKoKjJ7vezr1b12xVSj4hpt5AFqxcO0x44mFOPzSkFpdeFwoEklX37fbQK7TYmZrxzwYHrAjII5zE9IHj+2uXjazQ79ucJcghKrwuFA5ciirJZqbTHxOjQ9rys/P67ROqOl3YdkbBmxaT64zv2ZFfhfhVA6XWhcCDZ7MKyRarMNzLKT5+TXYR1QwjqsJPvzFWrX3LK1aTdl3n6mA9vdxf0LumWPr0Ael0oHNAcWcFsbL/M12mkpy79cjmGvhbYW1qpDvZ3VTpNX75uehe04eae93flol6RQ/XphcIBzhMDJ5qakOh+4cljQ7S1/bLNI+N2nAHRKtWOcyA510ilSo5SHrc0EoxZ8iGRSpUgxYRUQqoEMyDBkP4HblmFFohFd64AAAAASUVORK5CYII=;fontSize=16;fontStyle=2;labelPosition=center;align=center;spacingBottom=10;" parent="1" vertex="1">
          <mxGeometry x="40" y="960" width="156" height="165" as="geometry" />
        </mxCell>
        <mxCell id="FnMijFyFn5ux3ZuiBSjn-2" value="Массив смежности" style="shape=image;verticalLabelPosition=top;labelBackgroundColor=default;verticalAlign=bottom;aspect=fixed;imageAspect=0;image=data:image/png,iVBORw0KGgoAAAANSUhEUgAAAJMAAACsCAIAAADwqwk6AAAAA3NCSVQICAjb4U/gAAANNElEQVR4Xu2deVAUVx7Hp3uQgXEMDkFWhCARENYragQFE48lKB5IeeBuatdgedUmVak9ZDe7ValsNlVWVi2PKo1GVs26JpYXQcQjohsvFEZBJUp0XFAEpgAVRsARmBnobblWzLyemZ433e8xv/mP1+/4vt+nf91v6O+8ZkaOHKmAD4URYCnUDJKfRwDI0XoeADkgZycCjO/QiYmTIzSMnXpw2MEISJdzvmETE+PDBwA5B8nYq+YlWIHVhE9/99ezRmjNhTs/+abEKljZ/QdVQbHJCxLHhfl7W4wPrudmZl+pNrt/VEJHEMi5fiFTV6Yvj2k5f6akhQT1PtEpKxdGGM/t2bx+856LpujU5XOG9SNBmDwa0OQYVeDA+hNbNn19qbJZHm29R1WGRIezxScyL9011Bj0F3LyDH6RwwPR+knQ7E4N6Ksl9/Ra9qHnQ6OruFPYT/puKz3y+ac9pYyPrw/X0tzM/aSepxTQec6y2gkzJ2n0+TeMQI6iM5XRRM1bMX+I/tDhwgbPBUfd/1CY/pFzV6WNrcvOOFDsydwo++8Xox6WtHLpmw3Htu8tqJX7K4rcVymB5Qer1gb6+TAKpb8vwyi0g4OCrFZT/aNGub5CeQVPX75imlfh/tz7bEBQEB85rsVYa2zx0CsmmhzTf+wv0xdHd1dYlD5K0V5/fuuarHttspxujCokcqha5TUlbfWULgGWm3s/3lXUKosc2QdFk+OaLn+Zfll2gT0COJNuR7qOHD1yK6HzW4HcUSNhfAaeiZOAQYQGyDkRQSOiCZAjAoMIEUBORNCIaALkiMAgQgSQExE0IpoAOSIwiBAB5EQEjYgmQI4IDCJEADkRQSOiiWTkwG+Jmbdk5BTgt8SLDv2sgB+HOH8jFv+ncnjq396f/EqPZbet8vi6Tadr250MrPf4ZWveG9PLNthWdXz9xtM1zvbk5MBd1QXIdfgbh5Ue3XOkzKSJmrE4dbn18dqsexZxA7neivd/LlsxU1t26kxJUvcTOjG9tpfnbl2bp+TJ8WdmyryRDQU/GsUFm2so2pdxprKjsWp48qoka32TZM950VdL0vyN2PyfnLnhYU1NvSJ02oIE7fXdm/dcMoh5zM+ZHlVUVBqqOz41TYMiwqw3dbdMkpFD5xxp/kas/k/G943k1NjgtkavGdPrDp8seeJ80ln0OVv1XTnPvDohLspUtF0v4fN5dM69eCHqc/5Grrl4/z/WrPsis8Qnfslv3h7kWBhQ12ZlyMRJr9Ve0T2Q0tXkgOQ+6W/kWhsfP66t+OG7Y7qm0JHDXfqJkXdEXIz2fsFVpxc5qDPBoXJ75Pqev5Hx1mj91N13Ce5pk0nBO93F/ziM0YyePLbf7fwbEts/Bcn1SX8jG5Gc/tGiEarOE5sZ4KdRtDwT//sExn98fLS5OL9EurVJp3L0CkVBmr8Rk/+z/X7xzda0pJTYpxcrrIExyTHqsmN3RC/m2eDYuFBjYXapmOWpQ1dFVCU0OdL8jbj8n1zz7aydWSkLZqz4ox9rqv7x+93fFtSLXcvzt7jYAMNFXZX0HlTJvF+M/9QP/xKr37ThVLXzK3DUeefJ5YL3OU8ODPFzlyzniI8EbQIh52gj1q0XyAE5WiNAq27IOSBHawRo1Q05B+RojQCtuiHngBytEaBVt2Q5B35LzKeIZOTAb4mZHPopjwKTLxGjYOL8nxjn5nRXAuTw+RKdVmWzAWn+T5sipSsUuFpi8iXimgtp/k9c8xLbj0DOPe8Sgy9RrLKX25Hm/3xZn9R/C+Tccyl4fYnYJtfn/J8iImOHnAKnL1GEPFtN+qT/09ZEhcvQ5HD7EoV1OHq07/k/HZ35y/XQ5DD7El8eWMzffdL/KSYQz9ugVyh4fYli9b3QjjT/J4YpudIFmhxWX6IrErvakub/xDAll7pAk+MXlq2GgoNbCg66NAC2xrC/Ze9Qou9z2EIOHbklAuC3dEtYJegUck6CILtlCCDnlrBK0CmQkyDIbhkCyLklrBJ0CuQkCLJbhgBybgmrBJ0COQmC7JYhgJxbwipBp0BOgiC7ZQjJyIHfEjM/yciB3xIzOaFnBd1DKQcnfPj7eMNX6w/r5XzZGzs0+a+/S/j/Fl3t1ac2rD9p8NSdHuyTYwPi+N0ESw7svCsnNv4sYhiWsd7N3pp1p3OLTc7SVOep2Phw2CPHDJyQkhR8P2f9D0/F7vaC7SrBsoziWT2/m6Rsm6NimwqGjoTJMZoxyXMianI3Xn0iOzf+nbAMy/lGJv129sShA6yP75zLPHS+XPyGXRiCJ2sXQisUxjdq9rzRjeey8h61K6MWf7Zu6RvCoN08E4Zl+4WGehcd/HLbv8/WD527ZFZ4r22U3Tw8Yd0LoPB+feb8CZa87WcN/KZWSvl1t1ee/efmC8aqhyb+7mY4enHsRzHhAWypp25GhSbHBo0aqS0/e65c8l3kECcJ11JXVdFzrPlZs6KfN+ScjWDxb6JWeEUu+nTDos6DDNNWbKOaZEWMasjoNwc/Kb5e0bGTpK/aV2Fu9eC1Cjrn2gxnM9Zd9erabFUZNvP9+ZJRsjUQZ1WGvP2rueG+h78ve6qOSHwrxFic/dBzvxagySksTY9qmrpjqHzlWZtCbSuikpW1VZ7evV+VOivtDwtV5vry64e+OlUu/baSkk3X3kAC5Ho1bdMf/OTP9jpz93HLo2tZ265luXsYOvoX+lZAxww8VSX4LWklDzkH5GiNAK26IeeAHK0RoFU35ByQozUCtOqGnANytEaAVt2Qc0DOTgTAb2knQM4eli7n4H3izrIRri/wrIBYfyMe/yejjVu1emrtvzZnl8psRxQmhDoqQI5QfyMe/yfvapuboM7bc4JObDxOAXIKEv2NmPyfqogZ7wzI+2ZfJSkmG1RmocsFyRHnb8Tk//QKmT5nFKto/WBNEmMsvXTkYK6+kTpbhNAKhTR/Iyb/JzMwZs5klf4/B7Z89snafSWaqWnvxmrFv9sYnRXuPSJArsPfuGlH1tWyqso7F45erBwQzvsb3StHqPcu/+e3Hf5P8R82aNJbwbePHblW/cxqNt4+eVTXHD5+hEsvFBcvxoWWAiQ6/I0dttTnH9n9jZ3+zwuu+j8ZTdjrg0zGJ91+v3Zj/ROFur+auqRD3+dI8zfi8n9aLRbFwCGDfRlDh2/TOyh4ULvxciMBv5twLgHR5EjzN2Lyf3LNdwpvmZfMWzLT+t0PdaqIhAXjzEW7Suj7ZQmanII0fyMm/yfXVHwgQzU35RepH7zjba67V7g/47isv+h0LtV6akvm/YL3iYskhGomsEJBNYFyIiIgWc4RMdu+JAJyjlaaQA7I0RoBWnVDzgE5WiNAq27IOSBHawRo1Q05B+RojQCtuiXLOfBbYj5FJCMH+1tiJifwlKdrJGJ8icT6PzEjcbA7e+QI8iUS6v90MNDYq9khR5QvkUT/J3YgDncoSI4wXyLsb/kiVoEVCnG+RNL8nw6nh1sqoskR50skzf/pFh6Od4okR54vkTD/p+Mxdk9NJDlFjy+xc+BOX2KdfL5E3v85Jn58aP8uSyvsb4k6IYjzJZLm/0QFTqpyZWBgIGIsc+2d/z7x+3l8QmJC/KiApzeyv8651SDa0s/wv1l9K7iuIL9M7Pb5XGP53Tr/cYmzZye+PeZnzbdy9h0vaRKtBzFpeoqFvhXw7xPXZW7TZRIzG9jf8gUU6PscMbxAiM0IgN/SZlgoKIScowCSTYlAzmZYKCgEchRAsikRyNkMCwWFQI4CSDYlAjmbYaGgEMhRAMmmRCBnMywUFAI5CiDZlCgZOfBb2oy/+ELJyIHfUjwkmy3Rzwq8xy9b896YXi9VbKs6vn7j6RrZNjdTBcUmL0gcF+bvbTE+uJ6bmX2lmt698mzicKIQTY7vhGso2pdxprKDlGp48qoka32TfHv1+ESnrFw4rPToniNlJk3UjMWpy62P12bd89TXPqKvlpzpUUVFpYF/fTf/qWkaFBFmvam71bHjkiwfZUh0OFt8IvPSXUONQX8hJ8/gFzk8EK1fFpESDorOOYs+Z6u+Swnz6oS4KFPRdn2rhNJeGqqt9Mjnn/aUMT6+PlxLM32bPmELoEPnrDJk4qTXaq/oHlixjetaR6x2wsxJGn3+DaNslwDXJoChtSPkvCPiYrT3C67WyrY06TVRRhM1b8X8IfpDhwsbPBecwj45RjN68th+t/NvEBEmpn/k3FVpY+uyMw4UEyEIQ/aI68IuOcZ/fHy0uTi/RL61Sc/MGPWwpJVL32w4tn1vQS0pV25xcXe9FXqF0tk3GxwbF2oszC6V/4uTV/D05SumeRXuz73PBgQF8fq4FmOtkcqXDbgOTnDXe757/hYXG2C4qKuS39fIqEIih6pVXlPSVk/pmrjl5t6PdxXJuN7FAEB0F3Zyznz30N//JLpzrA05k25Hug5rl1R3Zvc+R/Xs+rJ48FvSShdyDsjRGgFadUPOATlaI0Crbsg5IEdrBGjVDTkH5GiNAK26IedoJfc/mJO6eb5ukXMAAAAASUVORK5CYII=;labelPosition=center;align=center;fontStyle=2;spacingBottom=10;fontSize=16;" parent="1" vertex="1">
          <mxGeometry x="267" y="960" width="147" height="172" as="geometry" />
        </mxCell>
        <mxCell id="lLxM01TSxMp6W5OPei_G-1" value="Перечень рёбер" style="shape=image;verticalLabelPosition=top;labelBackgroundColor=default;verticalAlign=bottom;aspect=fixed;imageAspect=0;image=data:image/png,iVBORw0KGgoAAAANSUhEUgAAAEIAAAB7CAIAAABPQ8HaAAAAA3NCSVQICAjb4U/gAAAKyElEQVR4Xu2ceVAUdxbHu3uYCwZlFJABRIRBUTwICgrGKKIcArIieORysx7ZZI9kN+5aW5Xddf+wEmOZuNEqq4yLWqwuYjyIwawQQSMI6qAgoJwjAiMMwgzXwNy9PSc40/OjexYmDNX9j2X/jn7f9379a34f3gMOCwuDnP9CnF+CTgElYzLFkYrGZIoGzdvb27Y9sFtQ7I733t2WtpLVUNbYh9ruOR4tyKy433+6NykikC0VCrsVZJ4GlEGbm/ybN+e25GXnFj3pkim142ErYA5U3tVY87TDNWJTAk9UUv1SA+hr0eQC6opM83AfFlY+FHaYZ0Q4wbE73kpayFUKTv3tXK0aNBzQxuRFpaZveC1wBkMlff6o4FLe/Q4lBGlkkg5Zr6A+KdrPnQFDSuLxAL7iWqVcyWQxYZM9dP81e/btipTf/rFWDrBxzCZWaNqeLXzprbNHDx89e0cWmrkrOYhuGgWzWExUISe1psb4bsjlCmxWzDH6C2Z6e0iuH/vq36Vtw2OaCuhA8w8NRqquXyptEHWK6n+6ViKaHjLP2+RQGHOcSqEgt4IBiwqme/h6s4ekvSpjcNHBh3kXdeYBBgGsNzdpmq5+dsD8P5jFZqHy4WHTCtL29fYzgv28mXUdxCOCZxEya/1H+zbOdoFh5YvbWecaVURss7MPwl2esJJTf61SapbRVphTxN/z58+TUVTzsujrQ9+3jh0ZPBnanrLsI7V0GtM7asv2TasFR/7bPvZE9siAOfM37d7sW5/ztWBkM0e8ViavYVf/59idtmG1erCH0KPxZEBqWXenDLOrq7J5KDrAlwW3DxHfNIjqgd1CUvbuDO/JO3GhavQXCZk120/TcrNC2E5iwwXuVBCDQUcVCtO7QdRAAv1g16DEPb9c1vf9iexy8au7NqpUKOl0Otgwy0fgRsPUCWGymUq53BxWxJXrPZ0FQ7QZbBiGuD48nlotk7zsx7Z87EK8Fscu8x1uKC0TDoKD5+IXu2v3WhdBTsEzxJPHw8aicqlYKtePQnXbI5eNbY8k3AeUoVVg341ZATx2Y/swpgV2C9+2b2uoaUjGvkWQVnL7+MErQl34Ea/w+I3xLjdrCsEadBu3f8gcV6bLGzs/ecPoMVV19qf/qlDoN/U5vhxUqdKMNYtxpOEfGHj6o81a8fbuLeGetK6b/xxjx4CnRb//13RG/qFjt7pJWTBijm6H/FNyANr7ND/rzK02Q4xfsdbmf8AydMNghvsMLlMp6R4AbryMxe8ceJN19bNT9/vtVIF9j9xmzmSreiX9JD9+RL5kqHKgRzxg0w/GBpo/P1Bdc/Wx/RqwidSyHrFuhyR/jR0N8nP+DCPI7Ws/g4HEHknJIOYnx/SiouEYPxN7ChUNYn5yTK8pEg0g4MF+GKQ4Fenl5DhOhc+XyBpMm5f59w9WTTODI01b/hdfFYq19nMq8HnDglPp+VJQ03dnrzbLOPPjt2buUncfuiIE/uSLJ1HbUnD8UAkNk4G5JW1TWF/5E6n5bDbhnArMl/DstXEPVfZ1dXZKoIC16XHcR1lHz5aKRg4XdnEqwE5lxan0fOn8Y+yMprss+ZINk23dhtlLUzOj/DznroyPXegxygw9p/LGOJV5zdmaYtR9vJ0KO4V9fOC3W5Pi1/BVd7PP3+3CWTUINzIjc3HPzctlIqMsAg97pYu6u/HhvfuV7fSwpNQl6irBcyN9Qfufi2iRGTszUhISNkTQ6+42ECD5eDJQhbipqqK8XNCILkiMZteVN1kchjC+lPb+Dn5L7ukbz+2HuRrF0JCsTyzs4kSt5w/cE7QZ/IF4vf7WjqCWi1k5P9wuETQSI/m4rziQU9niS8SjATM4HmztQN+QnuyggwMyCAOgMGTwuiM4FYAvEZeB8FP37c9YyDSMgN2ncyD5kJnh2sWpAK84xmwsOJWRL1XkGfgSj8fz4WJeNF4Yp4pLTIgJ4oz1bmqfVVUrwhLTooJ4PgFLN6ZGujY/qhswgQg9p2LpOBWJC3dRmcZbcioAXyLDqdDhp1dOXUlLj9/9x+mIrONJUdblcolRBcWpwMGjOBXYP9atFKey9okz3gFuuM4jiJIxmWJFRYOKxrh7YIosKrxj04ivKE5lx7pxMk7FiPjVwXeXmDOPdII17fmHvyzstDufCnzemCBOhZ1c+yrOn/yxTQ+nmPNS9yaqJaZzk9NwKlT2srW1TdShvzoHvLDf4Vbfq5GZD04TnE8FzoMi/jKo6q8drzd2h2cuj54vqzhRb8ZEDs2nss6DIi5jVE+a/4qVs8X3c5+PpL9oHZZPhZsHZY8MBj86kvus8IF4VNKUg/Kp/n9OZRIMcxavCqc/vVj5ChZ0Gk5lei1mRMSEKqvKak0vt+G+03Aqg7mIX1R0gFRQ3mSRqeM0nEovA3stojxFd+5ZpOJRnAq8x1CcCuwf61aKU1n7xBnvTJHTHyVjMi0+KhpUNMbdA1NkUVGcatxXhuM4ldF0mk/c7z6OEZ0+/G29oeiCnCRkTupfPorzMi9obceNI4d/EDkqn8poLOIZjSUQ1V441WCPBmwSGEZgdUPe8St1hqQaVDUwUsJkF6cC4jZIlzAwTVf3px4pZoA9lqcl+j27dvjxGDUzgAghCAwNSTBKhZMbZFc+FUCGVT6Vzi6YsyQ1md9Z8OWDXrvLNLCMBhhB2SGJv964Yo67urvu1qWLt1tMSSN2cSq8ncp2PhXMDv3Fe4ms0jO5j/uR+Vv/sT9SUlw5ms4AIjCqCZkZtnbFAtaLost5xTV9vJjU1dOFZU8lBspjVz4VXjRs1v0x5iZsXq4qOVEswoqZaMRMxuulbSv+5uhP0vYuGWa56Ls74fsjgz2Rpg69jgnnVAhvURi3pfhWC5mqIzwZqLynvdXcMDw0DNEZZsBuF6fCi8bIk1+t+8OK5CCXkIwDRzIMPWBYU4Vn5Vj3YKbv4mU+vVWPWvWEiu3KhpQK88uu51RsXd0fifJFoAyLfCqNqPjkFw9cjIlOtMCEDzaPtphw3R+qpvmv3p4SzP62qHnQlb/hdX9pVV6XiX9OeN0fpBp42Wku1qJNG9JAriM6iNf9QZq2wqwcZmbSzj9swUrYWh5dPH2jxeh6ilOB1zLFqcD+sW6lOJW1T5zxzhQ5/VEyJtPio6JBRWPcPTBFFhXe6W/EV1Q+lR3rxlGcyhZfssNk3RCYG733kzXiM0fzmgykyEF1f0C+RFYLxlhS4lxLzl43ajCNdwCnAvElkjKY/Pj17iXnzlv9OREHcCoQXyIlw8U/NnkRAik+PJgIS5tKr+YW1PcbT7ETz6mAfImEDNhjxY5twaLr57Nzr5e/mBaVlho6+PBhu6H2zi5Ohbfh2q77GxI3Vt8rud8o7uvvbm1DFqxbpH1c3kwWgiK+a7evk+V/UyCUazXy7uYu9+j4eYOmwr+Jr/sD8iXC0YA5gXO9ZC29JqSjlUp6Ib6bKwzpqyTt4lTgr7gFp2L6LomJCHAzEh4LvkRYBqRWqSAPXx+2cR4Gz89LK+0xVXpOeD6VgS+9nR4zz8/HN2RVCsaX6hvMfEn396kI1f2hw3WCGuXCTe8kLA309Z//xvb015QVJbUmFD3h+VQgvkSq7m+g6sJJZkrauswP1zOUPUJBzsl80697KE4FXtUUpwL7x7qV4lTWPnHGO+DvhtMoomRMplBNkWj8D3wo8SnRH4eNAAAAAElFTkSuQmCC;labelPosition=center;align=left;spacingTop=0;spacingBottom=10;fontSize=16;fontStyle=2" vertex="1" parent="1">
          <mxGeometry x="660" y="551" width="66" height="123" as="geometry" />
        </mxCell>
        <mxCell id="lLxM01TSxMp6W5OPei_G-2" value="Списки смежности" style="shape=image;verticalLabelPosition=top;labelBackgroundColor=default;verticalAlign=bottom;aspect=fixed;imageAspect=0;image=data:image/png,iVBORw0KGgoAAAANSUhEUgAAAL0AAACuCAIAAADs95tSAAAAA3NCSVQICAjb4U/gAAAUSUlEQVR4Xu2deVRUV57H61VRG6KCIoK4IKKiRNugEFGDWwSMIu2Cy8TWdFzOdE/P9KLTfeZ0zoz9Rzqd5tjtpDPHPiYajR1bY6LivkVcUMGUCyIiCshWYafYCoqiqt68KoEg9623HlXWq1/9x7333Xt/3/utV/cV91M/IioqSgYvUECgAnKB7aE5KGBXAHwDPsBRAHyDoxpcA74BD+AoAL7BUQ2uUQQFBb2sAjEgfP66n25YkzJT8/T2sybSszWSD1/4H+9vXRwdpjUUF9d1eHg0r85aIL5RjF3yb/8ytiT94FdXHtcYzbZXZ6pYMyFNNc8e5Vf6Ri9LDNFn5tZasXqBi/oq4NO3QD7If2B78YN7xZWcEsv9xs1f987iyQFm3Wf//WWepW9X/fS3OiQ2ecWi18OGqDoNpfcvfpN+p9LMPJTV2FBpbNQVLI4LHagiZGa44zBrJaAG2d/YzCazWqMmuPpQjpy7ZfumGNO1y3kmrrYs9YRvSFiwL+doP/SgiUzZsjLCcPXArrRdB24YI1M3LQlXsgzgqCI0GjXZYYKPKS6heNcjvpGZTB2UzNRbk/VFqIP8G87+7a//uFneztqQq9J3wrJf/377hoQpwzUcQzp6UoyMHCfPOfvNzaf6Kn3B9VOZ+sHjJwShUbw8LEG9Ezo7Ojz9Q5dLSxfW9/mcIpT+I4K0bYbGTo77Odl6L/2ofZ7IB52wyZN11/+eVjt7UWLqtviEnIxzF248rmP51JFZC098uKNnCEKj1ZCm9naOycpsTY3NqnGhQeonlXDPEbZADK27l10+/K1fbn97lA9BmL+/tu/LZ50M7cUvJs11jzP+mX/z0iTKPWt/O7f+1pH96Xl8nuPkATMSZ/oVnHpg4PRN+aXDVyK2/PZPS0jSWnvl449Ol8G9x6ml7PaNrf72wZ15SoU6KHbl2mVv6naerxBZWcI3dtOOtZO7BrQWn/jj/13/YcHt7rl6wtBqXb98cvjgk9y+IfwmLtu8fETB4Y913B6TD5u5ZK42959/u1HebrG01oscmlMr4JkX93zMWIx1VUYqhpoHRW1xo0doiIo2rnexsIjJ9odfp5Wqu7YipLml13ITmuCpcxMT4iNVJbeOfXGF07LEgPFLt26cVp+++0gOt2uo/8INHxVqLfn2bnEF50OisKC8tjW6PVGplGRHB9f+BkMw0tRYiz56KQOjFix5O36Spjzr4qd/1JW0cK4s4RuetOXd6U2ndx/Mqub38E+aO8xKrZLyLGfvGIF54yWIb+RqrdpsMnHeyeW+AUGDqUcgxRAtQcgCgkNCLBZjQ20z26aWRmD5kNdmhhtv7f0wu7iJlwd8Qudv2jzPR3f44nN5YEgI1SVpMlQbTKw3R9L+kBigpR4S++H9QBOV9IsQ39g6qO9vho8O0T6raGcxDzFg2prtqyO7L1+1/TWZreHaJx8cLxb2jrbVXNu3m2Rd9JcWgVCPHD/GV+0Tv3FbfFdFZ+7B9/fe7WBeK+o7gzEj/Ehzp5X/OMy9QY1dAQI576cY/sb6zSunBSpqvv1fz3/usD8n/ueS0WRj/pl9+6+WC7wbgkeYFEB943CTauCQALW5oa7Fdc/jTDN0stxnwNCh2s7Ghmb41s9JJV+6nN43Yo4AfUlRAa5v6KUYM8TkvALgG+c19MYewDfeuOrOxwy+cV5Db+wBfOONq+58zOAb5zX0xh7AN9646s7HDL5xXkNv7AF8442r7nzMCAcjkxY/5bxCntWDq3gxxDcS46c8a9Wdn62reDHkHAV/fkoYx+S8JD09uIXbUkxI/Z+fzR7Uw1xYy8/8+a+XqlmOmogSsSr6vQ82TH0J9LFWnEn7y6UqhpFdxIshvuHLTzk4pvDCkwdOFBn9JiasTt1kqfvoeLHQ/59T/NSYQU2lVbwPpVLc1nubEwOKLlzOS+o+gYOxQoLHtZVc/OSjTAXlG+r9krIsqinrsYFh6dimI3hc6lxa091Dey6XOwZTT0jemmRpaOE4SNT/vBi6L+bHT+FxTDSKCuSn3MVtyUhzU01VVYNs9LwVCwPu79t14KYe6zCPwHhJY21ZWbm+0vGqahkWEWbJzX5k5PJNv/NiffY3hHLI5Dnxow1ZV/PYD/2TDU8yr+ZWdx3ukw+ZPPeNQc+vZpcKhvDayu4/qPQJi1uyIik6iGiq1Ne2sZ4YNFcWPNa3WmXyoKkLpsoeZuTWYrzrKf8KHdduecJ3+rpfJI3V+gYEqBqLi2rZD6fSvEmEj2urf3rnfsmL+wsROGtlSnD+8fS8Rq6Y1aNjZo1qyX3wnFKqX17dvqHOxf1qxy9WL06YG9F56+ChWzUCPnDkATGrUqfUf3vstp7ltCbj9K1ttSWPsm/er1KGz05elTh1QM2TglrOjpz1DXVEXfi4lrpn97LvPKhQRi1OnmrJ0ZXy/njtFT3GuI6rFaPmr0nQ6o6eL2zluN3IyOZSvSJm1cZVSxMTF0Urn9x6yof6YFwhmoru/Q02P8WbYxKZn6KJhb5IzHHJjua6jmZZ3fnTYdN+HjVh4PVa5vUQc1x7ZKqIuJiA55e+47MV739ezDl+SgjHJCY/Re8Q+lJxxiVUfv5aW0tTmwO6IFtbjDKKMSZkzL4RZ9zumAi/KbOnKfOPPmAesFf4/c+LIc9TMt78lFCOSSx+it4ezKWijCuPSN6+XnnkD188tH+CEgMH+8lMbexcuijjdoVFDImeFWnO2ZvHtSN+0b7/eTHEN3z5KSyOCV1cwfyUm7gt2/Oc3I6NSSmxrTfKLEExyTG+RaefcD0Oo+HKBMfr6EMeGhs32qBLL+T5CNf/vBjiG778FAbHRCOjTDA/5SZui2zPP/7Z8ZQVCZt/M1hurHx8Zd+xrAau7SlNwELjdXRBbW1iA/U3snlSyq7gxVCeQVr8FM3SSbrIVbwY6hu7rBLipyTtEprgXMSL0fuGZj5QBAr0UgD9PwPIAwpwKwC+4dYIWqAKgG9QTaCEWwHwDbdG0AJVAHyDagIl3AqAb7g1ghaoAuAbVBMo4VYAfMOtEbRAFQDfoJpACbcCCAcjMX7KVTwRt9LSaoH4RmL8lKt4Imm5gjsa5BwFX37KTTwRFZEwbstFPBG30tJqgfiGLz/lLp4Ii9vqf55IWq7gjgbdF/Pjp9zFE+FxW5B/itsJwlr08Q3v/FOOUQjtj5JTY0MDx85MmD/ZH7Ugj6k48k99qeuMSt32/m/eWTg5UMV+kSP/1CHHIV/7BITknwqi8k/xSY3GPgGodSjgHD/lVp5Ixp/b6n+eyNvs5Bw/5UaeiDe3ZV/R/ueJvNU3MoH5p9zLEwnhthy+gfxTIhsbeZ7iyU+5kScSym1RivU/TyTysrzy3SG+4clPuY0nwuK2+p8neuUXWuQJIr7hyU+5iyeC/FMiGwCzO5RnkBY/5SqeCFN+j70M9Y09FAnxUy7iiTzWAJgTp/cNZmdwmdcogPUlr9eoA4EyKQC+YVIGytkUAN+wqQN1TAqAb5iUgXI2BcA3bOpAHZMC4BsmZaCcTQHwDZs6UMekAPiGSRkoZ1MAfMOmDtQxKYBwMMBPMUkF5b0UQHwD/BT4g4cCyDkKvvxUT9+K4IX//qtZ+s/Tvi7AyXPBY44vNZGPSf6vXy4c1vP5aqu8sDPtnJ4x0QXwU0IV5tUe8Q1ffqqrd3lgHJVXJ+/IZ0/xTCM4HxNByAnL0/RPjj95kXmE7Gxhz1xjnyjwU7zMIKAR4huZnZ8apFERMgv3zzoT/jNSkkKfn0p7yJmihGlO9nxMCeq8a+cvXH9Uzcd7cjkha2ugsjEJyFgD/BST/LjluPmnHO9ivx+lvhtvufx5egG/tAF0kxSaB0o+dPLcaH+rakbKhpVvx08LlVU+LW10JNtge/V7Pia2waVYh89PEdrIH/80SXNz/1cPm+UTV//hdzENGQ/4JLnpK6OwfEzyoVHz3pik+f7KsfSMR00hs5LfHFx8O7+BcX/jGA34qb6iO/s3Nj+lGpu4fEZn5u4MPZVRTcFjGiLlY7KVZ3y667qhosZIWUV/8sa038WMC5QXVrIaB/gpHgskqEnP/kYgPyUPeS0qoCTjagnPDCXUe7794ddppequByHS3NIrkxKhCZ46NzEhPlJVcuvYF1cqWExAmuorynpCbG9rlylVL6W7pQsf+Ck6VZwpQ/fF/PJPERRp7TN+1Y6dq16MThDWHI55iJKPiVCPmDI9uDHnfpljS6X11crMHZw7ZOCnONZGcDXiG578lFWfsefP3/l0cfqKsMSfLRc8tv0CofmYSIti5Jtrl47Tfn2lqNU3YtGckYac9BqW+5NjVsBPYS0Oy0WIb3jyU7LOltqqlu6OFYOoJLy+LMMwVgnOx2Qtv7TvsDp18cZfr1SbG0ruH/38QglHzlpX5GNiDFCiFSjPAPyURJda1LBQ39i7B35KVJEl2Bm9byQYKIQkqgJw/kZUOb2mM/CN1yy1qIGCb0SV02s6A994zVKLGij4RlQ5vaYz8I3XLLWogYJvRJXTazoD33jNUosaKPhGVDm9pjOEg5EYP+WuhZR63ivENxLjp9zlG6nnvULOUfDlp4RyTKIvoIu5ra75EwFxW7fNrd6/K72QHb6QOLeF+IYvP4XFMaHmEcxPdXXhcm7LMS7hN3XpQt/MA2c5TNMdp3S5LcQ3vPkpHI4J9Y1MMD/lWD83cFvUsOqIhLcGZn55qJzvoWrpclvY/BQex4QaRyg/5XjXu4Hboo5Tj1y0PjFYETwnJXnB9DB1XWFxfQcXmihZbgubn8LimFDbUCXC+CkqWZpbuC3C/411a8bpzx46+NXZrO8HxaYkR7beu1dhog2pu1C63BY2PyWYYxKJn3ITtyUPmTknNP/0/nuVVKq9tvxzJ7Nf/9foyQOzbzaz3XKky23h8lMUIiCQYxKHn3ITt0X4hY0dZixp7CZubIaGRlnEAF9Cxu4byea9QvfFPPkp4RyTOPyUm7gtS2enzH9EsJbQO7gtVUjoMJvhFqtpqGbS5bYQ3/Dkp/A4JnQzIJSfchO3RbY/0T0y/2TZTxIt5x/WqyMWrnjdfHdvXjvbh5TdN/Yf9wjQUj/u0cnRElXm1S5BfMOXn8LgmOiUEMxPuYnbIltyjuxRL01ZkPrzt1Tm+mLd4T1nuH4nSsrcFsozSIufovOqK8qknvcK9Y1dVQnxU64wCd0YEs97Re8bOiGgDBT4QQE4fwNuwFEAfIOjGlwDvgEP4CgAvsFRDa4B34AHcBQA3+CoBteAb8ADOAqAb3BUg2vAN+ABHAUQDkZi/JTUOSacNRfjGsQ3EuOnpM4xieEBnD6QcxR8+amuwXjzRDiTo7tGKLclcY6JTiJXlCG+4ctPOSYnlCdCIxLMT2FxW9LlmFBFXVOC+IY3P0XNTzBPRBOTYH4Kh9uSLsdEo6hLirD5KTyeCI1JKD+Fx21JlmNCBXVNCTY/hcUT0cYkjJ/C4rakyzHRKuqCwm7fkB3VhTl3s7J0z8hJSXHaJ1mF7Gf15SPmrV1gPPPpxWKTzWqqK6oZGJcwoTVbV07hRfQvip/a/MG29YsTHa+3xrfrvivtRa1R7iktKm0dGDljovXRzae9kgz16a6t+lluduadZ9VNzXVl5fJJC16zPcwqYs/TKB8255114SVH9x0+dy1T96zGaObKBEIfA5R2K4DJT2HwROLwU8K5LXukkH9KbMej+2J+/BQGTyQOPyWc26Ikky7HJLYf+PaH+IYfP4XJE6GzEspP4XFb0uWYUEVdU4L4hic/hcMT0UUkmJ/C4LakzDHRaeqKMpRnkBY/JXWOyRUeoRsD9Y29lYT4KYlzTHRr6ooyet+4YmQYw5MVgPM3nrx67ps7+MZ92nvyyOAbT149980dfOM+7T15ZPCNJ6+e++YOvnGf9p48MvjGk1fPfXMH37hPe08eGXzjyavnvrkjHAzwU+5bDA8aGfEN8FMetHrumypyjoInP6WKfu+DDVOVvSdurTiT9pdLVf1+AlMdEpu8YtHrYUNUnYbS+xe/Sb9TyZKfBfipfjEX4hv+/BTZdPfQnsvlDp+oJyRvTbI0tAj+dWfB/JQmMmXLyvDCkwdOFBn9JiasTt1kqfvoeHH3D+DTiwT8FL0u+KXovtj+E98aDfUT36wv0lhbVlaur3S8qlqGRYRZcrMfOX6DXtjLzk/9fvuGhCnDNRxDOvpVjIwcJ885+83Np/oqfcH1U5n6weMnBKFRvDwJ4KeELQp36z73G0LpPyJI22Zo5Ppd+M6CU58UdHVPDJ0RN9F4d3cBI8vAPA+y7vrf02pnL0pM3RafkJNx7sKNx3Usnzoya+GJD3f0dEdotBrS1M71c/cyW1Njs2pcaJD6SSVnyijmuULNDwpg81O9uhg1f02CVnf0fCE7jMIkuzB+qlcv8oCYValT6r89dlvP4Vjgp5jExy3vvt/Y6m8f3JmnVKiDYleuXfambuf5Cp4bXFVEXEzA80vfVXO0Fyn/VHeghN/EZZuXjyg4/LGOmbXqbizdPFC46+7sdZj8VM+whN+U2dOU+UcfcC6eSPyUY2RiwPilWzdOq0/ffSSHc2CqPfBTzvqk7/XI85SMHz/V1Q8xJHpWpDlnbx6PHbEo/JTdNL7hSVvend50evfBrGpL34Bo/wZ+ilYWJwoR3/Djp7pGlIfGxo026NIL2bayrLMTyk/JfELnb9o8z0d3+OJzeWBICNU5aTJUG9iTeQM/xboIGJWIb3jyU46hqK1NbKD+RnaFFWPkF5cI5acI9cjxY3zVPvEbt8V3DdqZe/D9vXdZdsbAT2EvD+OFKM8A/BSjWFDRowDqG3sV8FNgEXYF6H3Dfg3UggJc39CDQqAAnQLgGzpVoIxLAfANl0JQT6cA+IZOFSjjUgB8w6UQ1NMpAL6hUwXKuBQA33ApBPV0CoBv6FSBMi4FwDdcCkE9nQL/D7jQLWRIDRdbAAAAAElFTkSuQmCC;spacingBottom=10;labelPosition=center;align=left;fontSize=16;fontStyle=2" vertex="1" parent="1">
          <mxGeometry x="500" y="960" width="189" height="174" as="geometry" />
        </mxCell>
      </root>
    </mxGraphModel>
  </diagram>
</mxfile>
